<?xml version="1.0" standalone="no"?>
<!DOCTYPE svg PUBLIC "-//W3C//DTD SVG 1.1//EN" "http://www.w3.org/Graphics/SVG/1.1/DTD/svg11.dtd" >
<svg>
<metadata>
Created by FontForge 20090914 at Fri Jun 18 05:57:06 2021
 By www-data
Copyright (c) 2012 by Miniml. All rights reserved.
</metadata>
<defs>
<font id="Uni0553" horiz-adv-x="1536" >
  <font-face 
    font-family="uni 05_53"
    font-weight="400"
    font-stretch="normal"
    units-per-em="2048"
    panose-1="0 0 0 0 0 0 0 0 0 0"
    ascent="1638"
    descent="-410"
    x-height="1024"
    cap-height="1280"
    bbox="-256 -512 2816 2304"
    underline-thickness="40"
    underline-position="-252"
    unicode-range="U+000D-U+F002"
  />
<missing-glyph horiz-adv-x="1024" 
d="M129 0v1792h768v-1792h-768zM256 129h512v1536h-512v-1536z" />
    <glyph glyph-name=".notdef" horiz-adv-x="1024" 
d="M129 0v1792h768v-1792h-768zM256 129h512v1536h-512v-1536z" />
    <glyph glyph-name="NULL" horiz-adv-x="0" 
 />
    <glyph glyph-name="NULL" horiz-adv-x="0" 
 />
    <glyph glyph-name="nonmarkingreturn" unicode="&#xd;" horiz-adv-x="768" 
 />
    <glyph glyph-name="space" unicode=" " horiz-adv-x="768" 
 />
    <glyph glyph-name="exclam" unicode="!" horiz-adv-x="768" 
d="M256 0v256h256v-256h-256zM256 512v768h256v-768h-256z" />
    <glyph glyph-name="quotedbl" unicode="&#x22;" horiz-adv-x="1024" 
d="M0 768v512h256v-512h-256zM512 768v512h256v-512h-256z" />
    <glyph glyph-name="numbersign" unicode="#" 
d="M0 256v256h256v256h-256v256h256v256h256v-256h256v256h256v-256h256v-256h-256v-256h256v-256h-256v-256h-256v256h-256v-256h-256v256h-256zM512 512h256v256h-256v-256z" />
    <glyph glyph-name="dollar" unicode="$" 
d="M0 0v256h1024v256h-768v256h-256v256h256v256h256v256h256v-256h512v-256h-1024v-256h768v-256h256v-256h-256v-256h-256v-256h-256v256h-512z" />
    <glyph glyph-name="percent" unicode="%" 
d="M0 0v256h256v256h256v256h256v256h256v256h256v-256h-256v-256h-256v-256h-256v-256h-256v-256h-256zM0 1024v256h256v-256h-256zM1024 0v256h256v-256h-256z" />
    <glyph glyph-name="ampersand" unicode="&#x26;" horiz-adv-x="1792" 
d="M0 256v256h256v256h-256v256h256v256h768v-256h256v-256h-256v-256h-768v-256h1024v256h256v-256h-256v-256h-1024v256h-256zM256 778h768v236h-768v-236z" />
    <glyph glyph-name="quotesingle" unicode="'" horiz-adv-x="512" 
d="M0 768v512h256v-512h-256z" />
    <glyph glyph-name="parenleft" unicode="(" horiz-adv-x="768" 
d="M0 0v1280h256v256h256v-256h-256v-1280h256v-256h-256v256h-256z" />
    <glyph glyph-name="parenright" unicode=")" horiz-adv-x="768" 
d="M0 0h256v1280h-256v256h256v-256h256v-1280h-256v-256h-256v256z" />
    <glyph glyph-name="asterisk" unicode="*" 
d="M0 512v256h512v256h-256v256h256v-256h256v256h256v-256h-256v-256h512v-256h-512v-256h256v-256h-256v256h-256v-256h-256v256h256v256h-512z" />
    <glyph glyph-name="plus" unicode="+" 
d="M0 512v256h512v512h256v-512h512v-256h-512v-512h-256v512h-512z" />
    <glyph glyph-name="comma" unicode="," horiz-adv-x="768" 
d="M0 -256h256v512h256v-512h-256v-256h-256v256z" />
    <glyph glyph-name="glyph35" unicode="-" horiz-adv-x="1280" 
d="M0 512v256h1024v-256h-1024z" />
    <glyph glyph-name="period" unicode="." horiz-adv-x="512" 
d="M0 0v256h256v-256h-256z" />
    <glyph glyph-name="slash" unicode="/" 
d="M0 0v256h256v256h256v256h256v256h256v256h256v-256h-256v-256h-256v-256h-256v-256h-256v-256h-256z" />
    <glyph glyph-name="zero" unicode="0" 
d="M0 256v768h256v256h768v-256h256v-768h-256v-256h-768v256h-256zM256 266h768v748h-768v-748z" />
    <glyph glyph-name="one" unicode="1" horiz-adv-x="768" 
d="M0 1024v256h512v-1280h-256v1024h-256z" />
    <glyph glyph-name="two" unicode="2" 
d="M0 0v512h256v256h768v256h-1024v256h1024v-256h256v-512h-1024v-256h1024v-256h-1280z" />
    <glyph glyph-name="three" unicode="3" 
d="M0 0v256h1024v256h-768v256h768v256h-1024v256h1024v-256h256v-256h-256v-256h256v-256h-256v-256h-1024z" />
    <glyph glyph-name="four" unicode="4" 
d="M0 512v768h256v-512h768v512h256v-1280h-256v512h-1024z" />
    <glyph glyph-name="five" unicode="5" 
d="M0 0v256h1024v256h-1024v768h1280v-256h-1024v-256h768v-256h256v-256h-256v-256h-1024z" />
    <glyph glyph-name="six" unicode="6" 
d="M0 256v768h256v-256h768l256 -256v-256h-256v-256h-768v256h-256zM256 266h768v236h-768v-236zM256 1024v256h768v-256h-768z" />
    <glyph glyph-name="seven" unicode="7" horiz-adv-x="1280" 
d="M0 1024v256h1024v-768h-256v-512h-256v512h256v512h-768z" />
    <glyph glyph-name="eight" unicode="8" 
d="M0 256v256h256v256h-256v256h256v256h768v-256h256v-256h-256v-256h256v-256h-256v-256h-768v256h-256zM256 266h768v236h-768v-236zM256 778h768v236h-768v-236z" />
    <glyph glyph-name="nine" unicode="9" 
d="M0 768v256h256v256h768v-256h256v-768h-256v256h-768zM256 0v256h768v-256h-768zM256 778h768v236h-768v-236z" />
    <glyph glyph-name="colon" unicode=":" horiz-adv-x="1024" 
d="M256 256v256h256v-256h-256zM256 768v256h256v-256h-256z" />
    <glyph glyph-name="semicolon" unicode=";" horiz-adv-x="1024" 
d="M0 -256h256v512h256v-512h-256v-256h-256v256zM256 768v256h256v-256h-256z" />
    <glyph glyph-name="less" unicode="&#x3c;" horiz-adv-x="1024" 
d="M0 512v256h256v256h256v256h256v-256h-256v-256h-256v-256h256v-256h256v-256h-256v256h-256v256h-256z" />
    <glyph glyph-name="equal" unicode="=" 
d="M0 256v256h1280v-256h-1280zM0 768v256h1280v-256h-1280z" />
    <glyph glyph-name="greater" unicode="&#x3e;" horiz-adv-x="1024" 
d="M0 0v256h256v256h256v256h-256v256h-256v256h256v-256h256v-256h256v-256h-256v-256h-256v-256h-256z" />
    <glyph glyph-name="question" unicode="?" horiz-adv-x="1280" 
d="M0 1024v256h768v-256h256v-256h-256v-256h-512v256h512v256h-768zM256 0v256h256v-256h-256z" />
    <glyph glyph-name="at" unicode="@" 
d="M0 256v768h256v256h768v-256h256v-512h-768v256h512v256h-768v-768h768v-256h-768v256h-256z" />
    <glyph glyph-name="A" unicode="A" 
d="M0 0v1024h256v256h768v-256h256v-1024h-256v512h-768v-512h-256zM256 768h768v246h-768v-246z" />
    <glyph glyph-name="B" unicode="B" 
d="M0 0v1280h1024v-256h256v-256h-256v-256h256v-256h-256v-256h-1024zM256 256h758v256h-758v-256zM256 768h758v256h-758v-256z" />
    <glyph glyph-name="C" unicode="C" 
d="M0 256v768h256v256h768v-256h256v-256h-256v256h-768v-768h768v256h256v-256h-256v-256h-768v256h-256z" />
    <glyph glyph-name="D" unicode="D" 
d="M0 0v1280h1024v-256h256v-768h-256v-256h-1024zM256 256h758v768h-758v-768z" />
    <glyph glyph-name="E" unicode="E" 
d="M0 0v1280h1280v-256h-1024v-256h768v-256h-768v-256h1024v-256h-1280z" />
    <glyph glyph-name="F" unicode="F" 
d="M0 0v1280h1280v-256h-1024v-256h768v-256h-768v-512h-256z" />
    <glyph glyph-name="G" unicode="G" 
d="M0 256v768h256v256h1024v-256h-1024v-768h768v256h-512v256h768v-768h-1024v256h-256z" />
    <glyph glyph-name="H" unicode="H" 
d="M0 0v1280h256v-512h768v512h256v-1280h-256v512h-768v-512h-256z" />
    <glyph glyph-name="I" unicode="I" horiz-adv-x="512" 
d="M0 0v1280h256v-1280h-256z" />
    <glyph glyph-name="J" unicode="J" horiz-adv-x="1280" 
d="M0 256v256h256v-256h512v1024h256v-1024h-256v-256h-512v256h-256z" />
    <glyph glyph-name="K" unicode="K" 
d="M0 0v1280h256v-512h512v256h256v256h256v-256h-256v-256h-256v-256h256v-256h256v-256h-256v256h-256v256h-512v-512h-256z" />
    <glyph glyph-name="L" unicode="L" horiz-adv-x="1280" 
d="M0 0v1280h256v-1024h768v-256h-1024z" />
    <glyph glyph-name="M" unicode="M" 
d="M0 0v1280h256v-256h256v-256h256v256h256v256h256v-1280h-256v768h-256v-256h-256v256h-256v-768h-256z" />
    <glyph glyph-name="N" unicode="N" 
d="M0 0v1280h256v-256h256v-256h256v-256h256v768h256v-1280h-256v256h-256v256h-256v256h-256v-768h-256z" />
    <glyph glyph-name="O" unicode="O" 
d="M0 256v768h256v256h768v-256h256v-768h-256v-256h-768v256h-256zM256 266h768v748h-768v-748z" />
    <glyph glyph-name="P" unicode="P" 
d="M0 0v1280h1024v-256h256v-256h-256v-256h-768v-512h-256zM256 768h758v256h-758v-256z" />
    <glyph glyph-name="Q" unicode="Q" 
d="M0 256v768h256v256h768v-256h256v-768h-256v-256h256v-256h-256v256h-768v256h-256zM256 266h768v748h-768v-748z" />
    <glyph glyph-name="R" unicode="R" 
d="M0 0v1280h1024v-256h256v-256h-256v-512h256v-256h-256v256h-256v256h-512v-512h-256zM256 768h758v256h-758v-256z" />
    <glyph glyph-name="S" unicode="S" 
d="M0 0v256h1024v256h-768v256h-256v256h256v256h1024v-256h-1024v-256h768v-256h256v-256h-256v-256h-1024z" />
    <glyph glyph-name="T" unicode="T" 
d="M0 1024v256h1280v-256h-512v-1024h-256v1024h-512z" />
    <glyph glyph-name="U" unicode="U" 
d="M0 256v1024h256v-1024h768v1024h256v-1024h-256v-256h-768v256h-256z" />
    <glyph glyph-name="V" unicode="V" 
d="M0 512v768h256v-768h256v-256h256v256h256v768h256v-768h-256v-256h-256v-256h-256v256h-256v256h-256z" />
    <glyph glyph-name="W" unicode="W" horiz-adv-x="2048" 
d="M0 256v1024h256v-1024h512v1024h256v-1024h512v1024h256v-1024h-256v-256h-512v256h-256v-256h-512v256h-256z" />
    <glyph glyph-name="X" unicode="X" 
d="M0 0v256h256v256h256v256h-256v256h-256v256h256v-256h256v-256h256v256h256v256h256v-256h-256v-256h-256v-256h256v-256h256v-256h-256v256h-256v256h-256v-256h-256v-256h-256z" />
    <glyph glyph-name="Y" unicode="Y" 
d="M0 1024v256h256v-256h256v-256h256v256h256v256h256v-256h-256v-256h-256v-768h-256v768h-256v256h-256z" />
    <glyph glyph-name="Z" unicode="Z" 
d="M0 0v256h256v256h256v256h256v256h-768v256h1280v-256h-256v-256h-256v-256h-256v-256h768v-256h-1280z" />
    <glyph glyph-name="bracketleft" unicode="[" horiz-adv-x="768" 
d="M0 -256v1792h512v-256h-256v-1280h256v-256h-512z" />
    <glyph glyph-name="backslash" unicode="\" 
d="M0 1024v256h256v-256h256v-256h256v-256h256v-256h256v-256h-256v256h-256v256h-256v256h-256v256h-256z" />
    <glyph glyph-name="bracketright" unicode="]" horiz-adv-x="768" 
d="M0 0h256v1280h-256v256h512v-1792h-512v256z" />
    <glyph glyph-name="asciicircum" unicode="^" horiz-adv-x="1024" 
d="M-6 768v256h256v256h256v-256h256v-256h-256v256h-256v-256h-256z" />
    <glyph glyph-name="underscore" unicode="_" 
d="M0 0h1280v-256h-1280v256z" />
    <glyph glyph-name="grave" unicode="`" horiz-adv-x="768" 
d="M0 1024v256h256v-256h256v-256h-256v256h-256z" />
    <glyph glyph-name="a" unicode="a" horiz-adv-x="1280" 
d="M0 256v512h256v256h512v-256h256v-768h-768v256h-256zM256 266h512v492h-512v-492z" />
    <glyph glyph-name="b" unicode="b" horiz-adv-x="1280" 
d="M0 0v1280h256v-256h512v-256h256v-512h-256v-256h-768zM256 256h502v512h-502v-512z" />
    <glyph glyph-name="c" unicode="c" horiz-adv-x="1280" 
d="M0 256v512h256v256h768v-256h-768v-512h768v-256h-768v256h-256z" />
    <glyph glyph-name="d" unicode="d" horiz-adv-x="1280" 
d="M0 256v512h256v256h512v256h256v-1280h-768v256h-256zM266 256h502v512h-502v-512z" />
    <glyph glyph-name="e" unicode="e" horiz-adv-x="1280" 
d="M0 256v512h256v256h768v-512h-256v-256h256v-256h-768v256h-256zM256 266h256v256h256v236h-512v-492z" />
    <glyph glyph-name="f" unicode="f" horiz-adv-x="768" 
d="M0 0v1024h256v256h256v-256h-256v-256h256v-256h-256v-512h-256z" />
    <glyph glyph-name="g" unicode="g" horiz-adv-x="1280" 
d="M0 256v512h256v256h512v-256h256v-1024h-256v-256h-512v256h512v256h-512v256h-256zM256 266h512v492h-512v-492z" />
    <glyph glyph-name="h" unicode="h" horiz-adv-x="1280" 
d="M0 0v1280h256v-256h512v-256h256v-768h-256v768h-512v-768h-256z" />
    <glyph glyph-name="i" unicode="i" horiz-adv-x="512" 
d="M0 0v768h256v-768h-256zM0 1024v256h256v-256h-256z" />
    <glyph glyph-name="j" unicode="j" horiz-adv-x="768" 
d="M0 -256h256v1024h256v-1024h-256v-256h-256v256zM256 1024v256h256v-256h-256z" />
    <glyph glyph-name="k" unicode="k" horiz-adv-x="1280" 
d="M0 0v1280h256v-768h256v256h256v256h256v-256h-256v-256h256v-512h-256v512h-256v-256h-256v-256h-256z" />
    <glyph glyph-name="l" unicode="l" horiz-adv-x="512" 
d="M0 0v1280h256v-1280h-256z" />
    <glyph glyph-name="m" unicode="m" horiz-adv-x="2048" 
d="M0 0v1024h768v-256h256v256h512v-256h256v-768h-256v768h-512v-768h-256v768h-512v-768h-256z" />
    <glyph glyph-name="n" unicode="n" horiz-adv-x="1280" 
d="M0 0v1024h768v-256h256v-768h-256v768h-512v-768h-256z" />
    <glyph glyph-name="o" unicode="o" horiz-adv-x="1280" 
d="M0 256v512h256v256h512v-256h256v-512h-256v-256h-512v256h-256zM256 266h512v492h-512v-492z" />
    <glyph glyph-name="p" unicode="p" horiz-adv-x="1280" 
d="M0 -512v1536h768v-256h256v-512h-256v-256h-512v-512h-256zM256 266h512v492h-512v-492z" />
    <glyph glyph-name="q" unicode="q" horiz-adv-x="1280" 
d="M0 256v512h256v256h768v-1536h-256v512h-512v256h-256zM256 266h512v492h-512v-492z" />
    <glyph glyph-name="r" unicode="r" horiz-adv-x="1024" 
d="M0 0v1024h256v-256h256v256h256v-256h-256v-256h-256v-512h-256z" />
    <glyph glyph-name="s" unicode="s" horiz-adv-x="1280" 
d="M0 0v256h512v256h-512v256h256v256h768v-256h-512v-256h512v-256h-256v-256h-768z" />
    <glyph glyph-name="t" unicode="t" horiz-adv-x="1024" 
d="M0 768v256h256v256h256v-256h256v-256h-256v-768h-256v768h-256z" />
    <glyph glyph-name="u" unicode="u" horiz-adv-x="1280" 
d="M0 256v768h256v-768h512v768h256v-1024h-768v256h-256z" />
    <glyph glyph-name="v" unicode="v" horiz-adv-x="1280" 
d="M0 256v768h256v-768h512v768h256v-768h-256v-256h-512v256h-256z" />
    <glyph glyph-name="w" unicode="w" horiz-adv-x="2048" 
d="M0 256v768h256v-768h512v768h256v-768h512v768h256v-768h-256v-256h-512v256h-256v-256h-512v256h-256z" />
    <glyph glyph-name="x" unicode="x" horiz-adv-x="1280" 
d="M0 0v256h256v512h-256v256h256v-256h512v256h256v-256h-256v-512h256v-256h-256v256h-512v-256h-256z" />
    <glyph glyph-name="y" unicode="y" horiz-adv-x="1280" 
d="M0 256v768h256v-768h512v768h256v-1280h-256v-256h-512v256h512v256h-512v256h-256z" />
    <glyph glyph-name="z" unicode="z" horiz-adv-x="1280" 
d="M0 0v256h256v256h256v256h-512v256h1024v-256h-256v-256h-256v-256h512v-256h-1024z" />
    <glyph glyph-name="braceleft" unicode="{" horiz-adv-x="1024" 
d="M0 512v256h256v512h256v256h256v-256h-256v-512h-256v-256h256v-512h256v-256h-256v256h-256v512h-256z" />
    <glyph glyph-name="bar" unicode="|" horiz-adv-x="1024" 
d="M256 -256v1792h256v-1792h-256z" />
    <glyph glyph-name="braceright" unicode="}" horiz-adv-x="1024" 
d="M0 0h256v512h256v256h-256v512h-256v256h256v-256h256v-512h256v-256h-256v-512h-256v-256h-256v256z" />
    <glyph glyph-name="asciitilde" unicode="~" horiz-adv-x="1280" 
d="M0 512v256h256v256h256v-256h256v256h256v-256h-256v-256h-256v256h-256v-256h-256z" />
    <glyph glyph-name="uni00A0" unicode="&#xa0;" horiz-adv-x="768" 
 />
    <glyph glyph-name="exclamdown" unicode="&#xa1;" horiz-adv-x="768" 
d="M0 0v768h256v-768h-256zM0 1024v256h256v-256h-256z" />
    <glyph glyph-name="cent" unicode="&#xa2;" horiz-adv-x="1280" 
d="M0 256v512h256v256h256v256h256v-256h256v-256h-768v-512h768v-256h-256v-256h-256v256h-256v256h-256z" />
    <glyph glyph-name="sterling" unicode="&#xa3;" 
d="M0 0v256h256v256h-256v256h256v512h256v256h256v-256h256v-256h-256v256h-256v-512h256v-256h-256v-256h512v256h256v-256h-256v-256h-1024z" />
    <glyph glyph-name="currency" unicode="&#xa4;" horiz-adv-x="1792" 
d="M0 512v256h256v256h256v256h768v-256h256v-256h-256v256h-768v-256h512v-256h-512v-256h768v256h256v-256h-256v-256h-768v256h-256v256h-256z" />
    <glyph glyph-name="yen" unicode="&#xa5;" 
d="M0 1024v256h256v-256h256v-256h256v256h256v256h256v-256h-256v-256h-256v-256h256v-256h-256v-256h-256v256h-256v256h256v256h-256v256h-256z" />
    <glyph glyph-name="brokenbar" unicode="&#xa6;" horiz-adv-x="512" 
d="M0 0v512h256v-512h-256zM0 768v512h256v-512h-256z" />
    <glyph glyph-name="section" unicode="&#xa7;" horiz-adv-x="1024" 
d="M0 512v256h256v256h-256v256h256v256h256v-256h-256v-256h256v-256h256v-256h-256v-256h256v-256h-256v-256h-256v256h256v256h-256v256h-256zM256 514h256v250h-256v-250z" />
    <glyph glyph-name="dieresis" unicode="&#xa8;" horiz-adv-x="1280" 
d="M256 1024v256h256v-256h-256zM768 1024v256h256v-256h-256z" />
    <glyph glyph-name="copyright" unicode="&#xa9;" 
d="M0 256v768h256v256h768v-256h256v-768h-256v-256h-768v256h-256zM256 266h768v246h-512v256h512v246h-768v-748z" />
    <glyph glyph-name="ordfeminine" unicode="&#xaa;" horiz-adv-x="1024" 
d="M0 0v256h768v-256h-768zM0 768v256h256v256h256v-256h256v-512h-512v256h-256zM256 778h256v236h-256v-236z" />
    <glyph glyph-name="guillemotleft" unicode="&#xab;" 
d="M0 512v256h256v256h256v-256h-256v-256h256v-256h-256v256h-256zM768 512v256h256v256h256v-256h-256v-256h256v-256h-256v256h-256z" />
    <glyph glyph-name="logicalnot" unicode="&#xac;" 
d="M0 512v256h1280v-768h-256v512h-1024z" />
    <glyph glyph-name="uni00AD" unicode="&#xad;" horiz-adv-x="1280" 
d="M0 512v256h1024v-256h-1024z" />
    <glyph glyph-name="registered" unicode="&#xae;" 
d="M0 256v768h256v256h768v-256h256v-768h-256v-256h-768v256h-256zM256 266h256v502h512v246h-768v-748z" />
    <glyph glyph-name="macron" unicode="&#xaf;" horiz-adv-x="1024" 
d="M0 1024v256h768v-256h-768z" />
    <glyph glyph-name="degree" unicode="&#xb0;" horiz-adv-x="1024" 
d="M0 768v256h256v256h256v-256h256v-256h-256v-256h-256v256h-256zM256 778h256v236h-256v-236z" />
    <glyph glyph-name="plusminus" unicode="&#xb1;" 
d="M0 0h512v512h-512v256h512v512h256v-512h512v-256h-512v-512h512v-256h-1280v256z" />
    <glyph glyph-name="twosuperior" unicode="&#xb2;" horiz-adv-x="1024" 
d="M0 256v256h256v256h256v256h-512v256h512v-256h256v-256h-256v-256h256v-256h-768z" />
    <glyph glyph-name="threesuperior" unicode="&#xb3;" horiz-adv-x="1024" 
d="M0 256v256h512v256h-256v256h-256v256h512v-256h256v-512h-256v-256h-512z" />
    <glyph glyph-name="acute" unicode="&#xb4;" horiz-adv-x="768" 
d="M0 768v256h256v256h256v-256h-256v-256h-256z" />
    <glyph glyph-name="uni00B5" unicode="&#xb5;" 
d="M0 -512v1536h256v-768h512v768h256v-768h256v-256h-256v256h-256v-256h-512v-512h-256z" />
    <glyph glyph-name="paragraph" unicode="&#xb6;" 
d="M0 768v256h256v256h1024v-1280h-256v512h-256v-512h-256v512h-256v256h-256zM266 768h246v256h-246v-256zM768 768h256v256h-256v-256z" />
    <glyph glyph-name="periodcentered" unicode="&#xb7;" horiz-adv-x="512" 
d="M0 512v256h256v-256h-256z" />
    <glyph glyph-name="cedilla" unicode="&#xb8;" horiz-adv-x="768" 
d="M0 -256h256v256h256v-256h-256v-256h-256v256z" />
    <glyph glyph-name="onesuperior" unicode="&#xb9;" horiz-adv-x="512" 
d="M0 256v1024h256v-1024h-256z" />
    <glyph glyph-name="ordmasculine" unicode="&#xba;" horiz-adv-x="1024" 
d="M0 0v256h768v-256h-768zM0 768v256h256v256h256v-256h256v-256h-256v-256h-256v256h-256zM256 778h256v236h-256v-236z" />
    <glyph glyph-name="guillemotright" unicode="&#xbb;" 
d="M0 256v256h256v256h-256v256h256v-256h256v-256h-256v-256h-256zM768 256v256h256v256h-256v256h256v-256h256v-256h-256v-256h-256z" />
    <glyph glyph-name="onequarter" unicode="&#xbc;" horiz-adv-x="2048" 
d="M0 0v256h256v256h-256v768h256v-768h256v256h256v256h256v256h256v-256h-256v-256h256v-256h256v217h256v-729h-256v256h-512v512h-256v-256h-256v-256h-256v-256h-256z" />
    <glyph glyph-name="onehalf" unicode="&#xbd;" horiz-adv-x="2048" 
d="M0 0v256h256v256h-256v768h256v-768h256v256h256v256h256v256h256v-256h256v-256h256v-256h-256v-256h256v-256h-768v256h256v256h256v256h-768v-256h-256v-256h-256v-256h-256z" />
    <glyph glyph-name="threequarters" unicode="&#xbe;" horiz-adv-x="2304" 
d="M0 256v256h512v256h-256v256h-256v256h512v-256h256v-256h256v256h256v256h256v-256h-256v-256h256v-256h256v256h256v-768h-256v256h-512v512h-256v-256h-256v-256h-256v-256h-256v256h-256z" />
    <glyph glyph-name="questiondown" unicode="&#xbf;" horiz-adv-x="1280" 
d="M0 256v256h256v256h512v-256h-512v-256h768v-256h-768v256h-256zM512 1024v256h256v-256h-256z" />
    <glyph glyph-name="Agrave" unicode="&#xc0;" 
d="M0 0v1024h256v256h768v-256h256v-1024h-256v512h-768v-512h-256zM256 768h768v246h-768v-246zM256 1792v256h256v-256h256v-256h-256v256h-256z" />
    <glyph glyph-name="Aacute" unicode="&#xc1;" 
d="M0 0v1024h256v256h768v-256h256v-1024h-256v512h-768v-512h-256zM256 768h768v246h-768v-246zM512 1536v256h256v256h256v-256h-256v-256h-256z" />
    <glyph glyph-name="Acircumflex" unicode="&#xc2;" 
d="M0 0v1024h256v256h768v-256h256v-1024h-256v512h-768v-512h-256zM256 768h768v246h-768v-246zM256 1536v256h256v256h256v-256h256v-256h-256v256h-256v-256h-256z" />
    <glyph glyph-name="Atilde" unicode="&#xc3;" 
d="M0 0v1024h256v256h768v-256h256v-1024h-256v512h-768v-512h-256zM256 768h768v246h-768v-246zM256 1538v256h256v256h256v-256h256v256h256v-256h-256v-256h-256v256h-256v-256h-256z" />
    <glyph glyph-name="Adieresis" unicode="&#xc4;" 
d="M0 0v1024h256v256h768v-256h256v-1024h-256v512h-768v-512h-256zM256 768h768v246h-768v-246zM256 1536v256h256v-256h-256zM768 1536v256h256v-256h-256z" />
    <glyph glyph-name="Aring" unicode="&#xc5;" 
d="M0 0v1024h256v256h256v256h-256v256h256v256h256v-256h256v-256h-256v-256h256v-256h256v-1024h-256v512h-768v-512h-256zM256 768h768v246h-768v-246zM512 1546h256v236h-256v-236z" />
    <glyph glyph-name="AE" unicode="&#xc6;" horiz-adv-x="2560" 
d="M0 0v1024h256v256h2048v-256h-1024v-256h768v-256h-768v-256h1024v-256h-1280v512h-768v-512h-256zM266 768h758v252h-758v-252z" />
    <glyph glyph-name="Ccedilla" unicode="&#xc7;" 
d="M0 256v768h256v256h768v-256h256v-256h-256v256h-768v-768h768v256h256v-256h-256v-256h-256v-256h-256v-256h-256v256h256v256h-256v256h-256z" />
    <glyph glyph-name="Egrave" unicode="&#xc8;" 
d="M0 0v1280h1280v-256h-1024v-256h768v-256h-768v-256h1024v-256h-1280zM256 1792v256h256v-256h256v-256h-256v256h-256z" />
    <glyph glyph-name="Eacute" unicode="&#xc9;" 
d="M0 0v1280h1280v-256h-1024v-256h768v-256h-768v-256h1024v-256h-1280zM512 1536v256h256v256h256v-256h-256v-256h-256z" />
    <glyph glyph-name="Ecircumflex" unicode="&#xca;" 
d="M0 0v1280h1280v-256h-1024v-256h768v-256h-768v-256h1024v-256h-1280zM256 1536v256h256v256h256v-256h256v-256h-256v256h-256v-256h-256z" />
    <glyph glyph-name="Edieresis" unicode="&#xcb;" 
d="M0 0v1280h1280v-256h-1024v-256h768v-256h-768v-256h1024v-256h-1280zM256 1536v256h256v-256h-256zM768 1536v256h256v-256h-256z" />
    <glyph glyph-name="Igrave" unicode="&#xcc;" horiz-adv-x="512" 
d="M-256 1792v256h256v-256h256v-256h-256v256h-256zM0 0v1280h256v-1280h-256z" />
    <glyph glyph-name="Iacute" unicode="&#xcd;" horiz-adv-x="512" 
d="M0 0v1280h256v-1280h-256zM0 1536v256h256v256h256v-256h-256v-256h-256z" />
    <glyph glyph-name="Icircumflex" unicode="&#xce;" horiz-adv-x="512" 
d="M-256 1536v256h256v256h256v-256h256v-256h-256v256h-256v-256h-256zM0 0v1280h256v-1280h-256z" />
    <glyph glyph-name="Idieresis" unicode="&#xcf;" horiz-adv-x="512" 
d="M-256 1536v256h256v-256h-256zM0 0v1280h256v-1280h-256zM256 1536v256h256v-256h-256z" />
    <glyph glyph-name="Eth" unicode="&#xd0;" horiz-adv-x="1792" 
d="M0 512v256h256v512h1024v-256h256v-768h-256v-256h-1024v512h-256zM512 256h758v768h-758v-256h256v-256h-256v-256z" />
    <glyph glyph-name="Ntilde" unicode="&#xd1;" 
d="M0 0v1280h256v-256h256v-256h256v-256h256v768h256v-1280h-256v256h-256v256h-256v256h-256v-768h-256zM256 1538v256h256v256h256v-256h256v256h256v-256h-256v-256h-256v256h-256v-256h-256z" />
    <glyph glyph-name="Ograve" unicode="&#xd2;" 
d="M0 256v768h256v256h768v-256h256v-768h-256v-256h-768v256h-256zM256 266h768v748h-768v-748zM256 1792v256h256v-256h256v-256h-256v256h-256z" />
    <glyph glyph-name="Oacute" unicode="&#xd3;" 
d="M0 256v768h256v256h768v-256h256v-768h-256v-256h-768v256h-256zM256 266h768v748h-768v-748zM512 1536v256h256v256h256v-256h-256v-256h-256z" />
    <glyph glyph-name="Ocircumflex" unicode="&#xd4;" 
d="M0 256v768h256v256h768v-256h256v-768h-256v-256h-768v256h-256zM256 266h768v748h-768v-748zM256 1536v256h256v256h256v-256h256v-256h-256v256h-256v-256h-256z" />
    <glyph glyph-name="Otilde" unicode="&#xd5;" 
d="M0 256v768h256v256h768v-256h256v-768h-256v-256h-768v256h-256zM256 266h768v748h-768v-748zM256 1538v256h256v256h256v-256h256v256h256v-256h-256v-256h-256v256h-256v-256h-256z" />
    <glyph glyph-name="Odieresis" unicode="&#xd6;" 
d="M0 256v768h256v256h768v-256h256v-768h-256v-256h-768v256h-256zM256 262h768v746h-768v-746zM256 1536v256h256v-256h-256zM768 1536v256h256v-256h-256z" />
    <glyph glyph-name="Oslash" unicode="&#xd8;" 
d="M0 256v768h256v256h768v-256h256v-768h-256v-256h-768v256h-256zM256 512h256v256h256v246h-512v-502zM522 256h492v512h-236v-256h-256v-256z" />
    <glyph glyph-name="Ugrave" unicode="&#xd9;" 
d="M0 256v1024h256v-1024h768v1024h256v-1024h-256v-256h-768v256h-256zM256 1792v256h256v-256h256v-256h-256v256h-256z" />
    <glyph glyph-name="Uacute" unicode="&#xda;" 
d="M0 256v1024h256v-1024h768v1024h256v-1024h-256v-256h-768v256h-256zM512 1536v256h256v256h256v-256h-256v-256h-256z" />
    <glyph glyph-name="Ucircumflex" unicode="&#xdb;" 
d="M0 256v1024h256v-1024h768v1024h256v-1024h-256v-256h-768v256h-256zM256 1536v256h256v256h256v-256h256v-256h-256v256h-256v-256h-256z" />
    <glyph glyph-name="Udieresis" unicode="&#xdc;" 
d="M0 256v1024h256v-1024h768v1024h256v-1024h-256v-256h-768v256h-256zM256 1536v256h256v-256h-256zM768 1536v256h256v-256h-256z" />
    <glyph glyph-name="Yacute" unicode="&#xdd;" 
d="M0 1024v256h256v-256h256v-256h256v256h256v256h256v-256h-256v-256h-256v-768h-256v768h-256v256h-256zM512 1536v256h256v256h256v-256h-256v-256h-256z" />
    <glyph glyph-name="Thorn" unicode="&#xde;" horiz-adv-x="1280" 
d="M0 0v1280h256v-256h512v-256h256v-256h-256v-256h-512v-256h-256zM256 512h502v256h-502v-256z" />
    <glyph glyph-name="germandbls" unicode="&#xdf;" horiz-adv-x="1280" 
d="M0 0v1024h256v-1024h-256zM256 1024v256h512v-256h-512zM512 0v256h256v256h-256v256h256v256h256v-256h-256v-256h256v-256h-256v-256h-256z" />
    <glyph glyph-name="agrave" unicode="&#xe0;" horiz-adv-x="1280" 
d="M0 256v512h256v256h512v-256h256v-768h-768v256h-256zM256 266h512v492h-512v-492zM256 1536v256h256v-256h256v-256h-256v256h-256z" />
    <glyph glyph-name="aacute" unicode="&#xe1;" horiz-adv-x="1280" 
d="M0 256v512h256v256h512v-256h256v-768h-768v256h-256zM256 266h512v492h-512v-492zM256 1280v256h256v256h256v-256h-256v-256h-256z" />
    <glyph glyph-name="acircumflex" unicode="&#xe2;" horiz-adv-x="1280" 
d="M0 256v512h256v256h512v-256h256v-768h-768v256h-256zM0 1280v256h256v256h512v-256h256v-256h-256v256h-512v-256h-256zM256 266h512v492h-512v-492z" />
    <glyph glyph-name="atilde" unicode="&#xe3;" horiz-adv-x="1280" 
d="M0 256v512h256v256h512v-256h256v-768h-768v256h-256zM0 1280v256h256v256h256v-256h256v256h256v-256h-256v-256h-256v256h-256v-256h-256zM256 266h512v492h-512v-492z" />
    <glyph glyph-name="adieresis" unicode="&#xe4;" horiz-adv-x="1280" 
d="M0 256v512h256v256h512v-256h256v-768h-768v256h-256zM0 1280v256h256v-256h-256zM256 266h512v492h-512v-492zM768 1280v256h256v-256h-256z" />
    <glyph glyph-name="aring" unicode="&#xe5;" horiz-adv-x="1280" 
d="M0 256v512h256v256h-256v256h256v256h512v-256h256v-256h-256v-256h256v-768h-768v256h-256zM256 266h512v492h-512v-492zM256 1034h512v236h-512v-236z" />
    <glyph glyph-name="ae" unicode="&#xe6;" horiz-adv-x="2048" 
d="M0 256v512h256v256h512v-256h256v256h768v-512h-256v-256h256v-256h-1536v256h-256zM256 266h512v492h-512v-492zM1024 266h256v256h256v236h-512v-492z" />
    <glyph glyph-name="ccedilla" unicode="&#xe7;" horiz-adv-x="1280" 
d="M0 256v512h256v256h768v-256h-768v-512h768v-256h-256v-256h-256v-256h-256v256h256v256h-256v256h-256z" />
    <glyph glyph-name="egrave" unicode="&#xe8;" horiz-adv-x="1280" 
d="M0 256v512h256v256h768v-512h-256v-256h256v-256h-768v256h-256zM256 266h256v256h256v236h-512v-492zM256 1536v256h256v-256h256v-256h-256v256h-256z" />
    <glyph glyph-name="eacute" unicode="&#xe9;" horiz-adv-x="1280" 
d="M0 256v512h256v256h768v-512h-256v-256h256v-256h-768v256h-256zM256 266h256v256h256v236h-512v-492zM256 1280v256h256v256h256v-256h-256v-256h-256z" />
    <glyph glyph-name="ecircumflex" unicode="&#xea;" horiz-adv-x="1280" 
d="M0 256v512h256v256h768v-512h-256v-256h256v-256h-768v256h-256zM0 1280v256h256v256h512v-256h256v-256h-256v256h-512v-256h-256zM256 266h256v256h256v236h-512v-492z" />
    <glyph glyph-name="edieresis" unicode="&#xeb;" horiz-adv-x="1280" 
d="M0 256v512h256v256h768v-512h-256v-256h256v-256h-768v256h-256zM0 1282v256h256v-256h-256zM256 266h256v256h256v236h-512v-492zM768 1280v256h256v-256h-256z" />
    <glyph glyph-name="igrave" unicode="&#xec;" horiz-adv-x="512" 
d="M-256 1280v256h256v-256h256v-256h-256v256h-256zM0 0v768h256v-768h-256z" />
    <glyph glyph-name="iacute" unicode="&#xed;" horiz-adv-x="512" 
d="M0 0v768h256v-768h-256zM0 1024v256h256v256h256v-256h-256v-256h-256z" />
    <glyph glyph-name="icircumflex" unicode="&#xee;" horiz-adv-x="512" 
d="M-256 1024v256h256v256h256v-256h256v-256h-256v256h-256v-256h-256zM0 0v768h256v-768h-256z" />
    <glyph glyph-name="idieresis" unicode="&#xef;" horiz-adv-x="512" 
d="M-256 1024v256h256v-256h-256zM0 0v768h256v-768h-256zM256 1024v256h256v-256h-256z" />
    <glyph glyph-name="eth" unicode="&#xf0;" horiz-adv-x="1280" 
d="M0 256v512h256v256h256v256h-256v256h256v-256h256v256h256v-256h-256v-256h256v-1024h-768v256h-256zM266 256h502v512h-502v-512z" />
    <glyph glyph-name="ntilde" unicode="&#xf1;" horiz-adv-x="1280" 
d="M0 0v1024h768v-256h256v-768h-256v768h-512v-768h-256zM0 1280v256h256v256h256v-256h256v256h256v-256h-256v-256h-256v256h-256v-256h-256z" />
    <glyph glyph-name="ograve" unicode="&#xf2;" horiz-adv-x="1280" 
d="M0 256v512h256v256h512v-256h256v-512h-256v-256h-512v256h-256zM256 266h512v492h-512v-492zM256 1536v256h256v-256h256v-256h-256v256h-256z" />
    <glyph glyph-name="oacute" unicode="&#xf3;" horiz-adv-x="1280" 
d="M0 256v512h256v256h512v-256h256v-512h-256v-256h-512v256h-256zM256 266h512v492h-512v-492zM256 1280v256h256v256h256v-256h-256v-256h-256z" />
    <glyph glyph-name="ocircumflex" unicode="&#xf4;" horiz-adv-x="1280" 
d="M0 256v512h256v256h512v-256h256v-512h-256v-256h-512v256h-256zM0 1280v256h256v256h512v-256h256v-256h-256v256h-512v-256h-256zM256 266h512v492h-512v-492z" />
    <glyph glyph-name="otilde" unicode="&#xf5;" horiz-adv-x="1280" 
d="M0 256v512h256v256h512v-256h256v-512h-256v-256h-512v256h-256zM0 1280v256h256v256h256v-256h256v256h256v-256h-256v-256h-256v256h-256v-256h-256zM256 266h512v492h-512v-492z" />
    <glyph glyph-name="odieresis" unicode="&#xf6;" horiz-adv-x="1280" 
d="M0 256v512h256v256h512v-256h256v-512h-256v-256h-512v256h-256zM0 1280v256h256v-256h-256zM256 266h512v492h-512v-492zM768 1280v256h256v-256h-256z" />
    <glyph glyph-name="divide" unicode="&#xf7;" 
d="M0 512v256h1280v-256h-1280zM512 0v256h256v-256h-256zM512 1024v256h256v-256h-256z" />
    <glyph glyph-name="oslash" unicode="&#xf8;" horiz-adv-x="1280" 
d="M0 256v512h256v256h512v-256h256v-512h-256v-256h-512v256h-256zM256 512h256v-246h256v246h-256v246h-256v-246z" />
    <glyph glyph-name="ugrave" unicode="&#xf9;" horiz-adv-x="1280" 
d="M0 256v768h256v-768h512v768h256v-1024h-768v256h-256zM256 1536v256h256v-256h256v-256h-256v256h-256z" />
    <glyph glyph-name="uacute" unicode="&#xfa;" horiz-adv-x="1280" 
d="M0 256v768h256v-768h512v768h256v-1024h-768v256h-256zM256 1280v256h256v256h256v-256h-256v-256h-256z" />
    <glyph glyph-name="ucircumflex" unicode="&#xfb;" horiz-adv-x="1280" 
d="M0 256v768h256v-768h512v768h256v-1024h-768v256h-256zM0 1280v256h256v256h512v-256h256v-256h-256v256h-512v-256h-256z" />
    <glyph glyph-name="udieresis" unicode="&#xfc;" horiz-adv-x="1280" 
d="M0 256v768h256v-768h512v768h256v-1024h-768v256h-256zM0 1280v256h256v-256h-256zM768 1280v256h256v-256h-256z" />
    <glyph glyph-name="thorn" unicode="&#xfe;" horiz-adv-x="1280" 
d="M0 -512v1792h256v-512h512v-256h256v-256h-256v-256h-512v-512h-256zM256 256h502v256h-502v-256z" />
    <glyph glyph-name="ydieresis" unicode="&#xff;" horiz-adv-x="1280" 
d="M0 256v768h256v-768h512v768h256v-1280h-256v-256h-512v256h512v256h-512v256h-256zM0 1282v256h256v-256h-256zM768 1280v256h256v-256h-256z" />
    <glyph glyph-name="Amacron" unicode="&#x100;" 
d="M0 0v1024h256v256h768v-256h256v-1024h-256v512h-768v-512h-256zM256 768h768v246h-768v-246zM256 1536v256h768v-256h-768z" />
    <glyph glyph-name="amacron" unicode="&#x101;" horiz-adv-x="1280" 
d="M0 256v512h256v256h512v-256h256v-768h-768v256h-256zM0 1280v256h1024v-256h-1024zM256 266h512v492h-512v-492z" />
    <glyph glyph-name="Abreve" unicode="&#x102;" 
d="M0 0v1024h256v256h768v-256h256v-1024h-256v512h-768v-512h-256zM256 768h768v246h-768v-246zM256 1792v256h256v-256h256v256h256v-256h-256v-256h-256v256h-256z" />
    <glyph glyph-name="abreve" unicode="&#x103;" horiz-adv-x="1280" 
d="M0 256v512h256v256h512v-256h256v-768h-768v256h-256zM0 1536v256h256v-256h512v256h256v-256h-256v-256h-512v256h-256zM256 266h512v492h-512v-492z" />
    <glyph glyph-name="Aogonek" unicode="&#x104;" 
d="M0 0v1024h256v256h768v-256h256v-1024h-256v-256h256v-256h-256v256h-256v256h256v512h-768v-512h-256zM256 768h768v246h-768v-246z" />
    <glyph glyph-name="aogonek" unicode="&#x105;" horiz-adv-x="1280" 
d="M0 256v512h256v256h512v-256h256v-768h-256v-256h256v-256h-256v256h-256v256h-256v256h-256zM256 266h512v492h-512v-492z" />
    <glyph glyph-name="Cacute" unicode="&#x106;" 
d="M0 256v768h256v256h768v-256h256v-256h-256v256h-768v-768h768v256h256v-256h-256v-256h-768v256h-256zM512 1536v256h256v256h256v-256h-256v-256h-256z" />
    <glyph glyph-name="cacute" unicode="&#x107;" horiz-adv-x="1280" 
d="M0 256v512h256v256h768v-256h-768v-512h768v-256h-768v256h-256zM256 1280v256h256v256h256v-256h-256v-256h-256z" />
    <glyph glyph-name="Ccircumflex" unicode="&#x108;" 
d="M0 256v768h256v256h768v-256h256v-256h-256v256h-768v-768h768v256h256v-256h-256v-256h-768v256h-256zM256 1536v256h256v256h256v-256h256v-256h-256v256h-256v-256h-256z" />
    <glyph glyph-name="ccircumflex" unicode="&#x109;" horiz-adv-x="1280" 
d="M0 256v512h256v256h768v-256h-768v-512h768v-256h-768v256h-256zM0 1280v256h256v256h512v-256h256v-256h-256v256h-512v-256h-256z" />
    <glyph glyph-name="Cdot" unicode="&#x10a;" 
d="M0 256v768h256v256h768v-256h256v-256h-256v256h-768v-768h768v256h256v-256h-256v-256h-768v256h-256zM512 1536v256h256v-256h-256z" />
    <glyph glyph-name="cdot" unicode="&#x10b;" 
d="M0 256v512h256v256h768v-256h-768v-512h768v-256h-768v256h-256zM512 1280v256h256v-256h-256z" />
    <glyph glyph-name="Ccaron" unicode="&#x10c;" 
d="M0 256v768h256v256h768v-256h256v-256h-256v256h-768v-768h768v256h256v-256h-256v-256h-768v256h-256zM256 1792v256h256v-256h256v256h256v-256h-256v-256h-256v256h-256z" />
    <glyph glyph-name="ccaron" unicode="&#x10d;" horiz-adv-x="1280" 
d="M0 256v512h256v256h768v-256h-768v-512h768v-256h-768v256h-256zM0 1536v256h256v-256h512v256h256v-256h-256v-256h-512v256h-256z" />
    <glyph glyph-name="Dcaron" unicode="&#x10e;" 
d="M0 0v1280h1024v-256h256v-768h-256v-256h-1024zM256 256h758v768h-758v-768zM256 1792v256h256v-256h256v256h256v-256h-256v-256h-256v256h-256z" />
    <glyph glyph-name="dcaron" unicode="&#x10f;" horiz-adv-x="1792" 
d="M0 256v512h256v256h512v256h256v-1280h-768v256h-256zM266 256h502v512h-502v-512zM1280 768v512h256v-512h-256z" />
    <glyph glyph-name="Dmacron" unicode="&#x110;" horiz-adv-x="1792" 
d="M0 512v256h256v512h1024v-256h256v-768h-256v-256h-1024v512h-256zM512 256h758v768h-758v-256h256v-256h-256v-256z" />
    <glyph glyph-name="dcroat" unicode="&#x111;" horiz-adv-x="1280" 
d="M0 256v512h256v256h256v256h-256v256h256v-256h256v256h256v-256h-256v-256h256v-1024h-768v256h-256zM266 256h502v512h-502v-512z" />
    <glyph glyph-name="Emacron" unicode="&#x112;" 
d="M0 0v1280h1280v-256h-1024v-256h768v-256h-768v-256h1024v-256h-1280zM256 1536v256h768v-256h-768z" />
    <glyph glyph-name="emacron" unicode="&#x113;" horiz-adv-x="1280" 
d="M0 256v512h256v256h768v-512h-256v-256h256v-256h-768v256h-256zM0 1280v256h1024v-256h-1024zM256 266h256v256h256v236h-512v-492z" />
    <glyph glyph-name="Ebreve" unicode="&#x114;" 
d="M0 0v1280h1280v-256h-1024v-256h768v-256h-768v-256h1024v-256h-1280zM256 1792v256h256v-256h256v256h256v-256h-256v-256h-256v256h-256z" />
    <glyph glyph-name="ebreve" unicode="&#x115;" horiz-adv-x="1280" 
d="M0 256v512h256v256h768v-512h-256v-256h256v-256h-768v256h-256zM0 1536v256h256v-256h512v256h256v-256h-256v-256h-512v256h-256zM256 266h256v256h256v236h-512v-492z" />
    <glyph glyph-name="Edot" unicode="&#x116;" 
d="M0 0v1280h1280v-256h-1024v-256h768v-256h-768v-256h1024v-256h-1280zM512 1536v256h256v-256h-256z" />
    <glyph glyph-name="edot" unicode="&#x117;" horiz-adv-x="1280" 
d="M0 256v512h256v256h768v-512h-256v-256h256v-256h-768v256h-256zM256 266h256v256h256v236h-512v-492zM512 1280v256h256v-256h-256z" />
    <glyph glyph-name="Eogonek" unicode="&#x118;" 
d="M0 0v1280h1280v-256h-1024v-256h768v-256h-768v-256h1024v-256h-256v-256h256v-256h-256v256h-256v256h-768z" />
    <glyph glyph-name="eogonek" unicode="&#x119;" horiz-adv-x="1280" 
d="M0 256v512h256v256h768v-512h-256v-256h256v-256h-256v-256h256v-256h-256v256h-256v256h-256v256h-256zM256 266h256v256h256v236h-512v-492z" />
    <glyph glyph-name="Ecaron" unicode="&#x11a;" 
d="M0 0v1280h1280v-256h-1024v-256h768v-256h-768v-256h1024v-256h-1280zM256 1792v256h256v-256h256v256h256v-256h-256v-256h-256v256h-256z" />
    <glyph glyph-name="ecaron" unicode="&#x11b;" horiz-adv-x="1280" 
d="M0 256v512h256v256h768v-512h-256v-256h256v-256h-768v256h-256zM0 1536v256h256v-256h512v256h256v-256h-256v-256h-512v256h-256zM256 266h256v256h256v236h-512v-492z" />
    <glyph glyph-name="Gcircumflex" unicode="&#x11c;" 
d="M0 256v768h256v256h1024v-256h-1024v-768h768v256h-512v256h768v-768h-1024v256h-256zM256 1536v256h256v256h256v-256h256v-256h-256v256h-256v-256h-256z" />
    <glyph glyph-name="gcircumflex" unicode="&#x11d;" horiz-adv-x="1280" 
d="M0 256v512h256v256h512v-256h256v-1024h-256v-256h-512v256h512v256h-512v256h-256zM0 1280v256h256v256h512v-256h256v-256h-256v256h-512v-256h-256zM256 266h512v492h-512v-492z" />
    <glyph glyph-name="Gbreve" unicode="&#x11e;" 
d="M0 256v768h256v256h1024v-256h-1024v-768h768v256h-512v256h768v-768h-1024v256h-256zM256 1792v256h256v-256h256v256h256v-256h-256v-256h-256v256h-256z" />
    <glyph glyph-name="gbreve" unicode="&#x11f;" horiz-adv-x="1280" 
d="M0 256v512h256v256h512v-256h256v-1024h-256v-256h-512v256h512v256h-512v256h-256zM0 1536v256h256v-256h512v256h256v-256h-256v-256h-512v256h-256zM256 266h512v492h-512v-492z" />
    <glyph glyph-name="Gdot" unicode="&#x120;" 
d="M0 256v768h256v256h1024v-256h-1024v-768h768v256h-512v256h768v-768h-1024v256h-256zM512 1536v256h256v-256h-256z" />
    <glyph glyph-name="gdot" unicode="&#x121;" horiz-adv-x="1280" 
d="M0 256v512h256v256h512v-256h256v-1024h-256v-256h-512v256h512v256h-512v256h-256zM256 266h512v492h-512v-492zM512 1280v256h256v-256h-256z" />
    <glyph glyph-name="Gcedilla" unicode="&#x122;" 
d="M0 256v768h256v256h1024v-256h-1024v-768h768v256h-512v256h768v-768h-256v-256h-256v-256h-256v256h256v256h-512v256h-256z" />
    <glyph glyph-name="gcedilla" unicode="&#x123;" horiz-adv-x="1280" 
d="M0 256v512h256v256h512v-256h256v-1024h-256v-256h-512v256h512v256h-512v256h-256zM256 266h512v492h-512v-492zM256 1280v256h256v256h256v-256h-256v-256h-256z" />
    <glyph glyph-name="Hcircumflex" unicode="&#x124;" 
d="M0 0v1280h256v-512h768v512h256v-1280h-256v512h-768v-512h-256zM256 1536v256h256v256h256v-256h256v-256h-256v256h-256v-256h-256z" />
    <glyph glyph-name="hcircumflex" unicode="&#x125;" horiz-adv-x="1280" 
d="M0 0v1280h256v-256h512v-256h256v-768h-256v768h-512v-768h-256zM0 1536v256h256v256h512v-256h256v-256h-256v256h-512v-256h-256z" />
    <glyph glyph-name="Hbar" unicode="&#x126;" horiz-adv-x="2048" 
d="M0 1024v256h1792v-256h-256v-1024h-256v512h-768v-512h-256v1024h-256zM512 768h768v256h-768v-256z" />
    <glyph glyph-name="hbar" unicode="&#x127;" 
d="M0 1024v256h1024v-256h-512v-256h512v-256h256v-512h-256v512h-512v-512h-256v1024h-256z" />
    <glyph glyph-name="Itilde" unicode="&#x128;" horiz-adv-x="512" 
d="M-256 1536v256h256v256h256v-256h256v256h256v-256h-256v-256h-256v256h-256v-256h-256zM0 0v1280h256v-1280h-256z" />
    <glyph glyph-name="itilde" unicode="&#x129;" horiz-adv-x="512" 
d="M-256 1024v256h256v256h256v-256h256v256h256v-256h-256v-256h-256v256h-256v-256h-256zM0 0v768h256v-768h-256z" />
    <glyph glyph-name="Imacron" unicode="&#x12a;" horiz-adv-x="512" 
d="M-256 1536v256h768v-256h-768zM0 0v1280h256v-1280h-256z" />
    <glyph glyph-name="imacron" unicode="&#x12b;" horiz-adv-x="512" 
d="M-256 1024v256h768v-256h-768zM0 0v768h256v-768h-256z" />
    <glyph glyph-name="Ibreve" unicode="&#x12c;" horiz-adv-x="512" 
d="M-256 1792v256h256v-256h256v256h256v-256h-256v-256h-256v256h-256zM0 0v1280h256v-1280h-256z" />
    <glyph glyph-name="ibreve" unicode="&#x12d;" horiz-adv-x="512" 
d="M-256 1280v256h256v-256h256v256h256v-256h-256v-256h-256v256h-256zM0 0v768h256v-768h-256z" />
    <glyph glyph-name="Iogonek" unicode="&#x12e;" horiz-adv-x="768" 
d="M0 0h256v1280h256v-1280h-256v-256h256v-256h-256v256h-256v256z" />
    <glyph glyph-name="iogonek" unicode="&#x12f;" horiz-adv-x="768" 
d="M0 0h256v768h256v-768h-256v-256h256v-256h-256v256h-256v256zM256 1024v256h256v-256h-256z" />
    <glyph glyph-name="Idotaccent" unicode="&#x130;" horiz-adv-x="512" 
d="M0 0v1280h256v-1280h-256zM0 1536v256h256v-256h-256z" />
    <glyph glyph-name="dotlessi" unicode="&#x131;" horiz-adv-x="512" 
d="M0 0v768h256v-768h-256z" />
    <glyph glyph-name="IJ" unicode="&#x132;" horiz-adv-x="1280" 
d="M0 0v1280h256v-1280h-256zM512 0v256h256v1024h256v-1024h-256v-256h-256z" />
    <glyph glyph-name="ij" unicode="&#x133;" horiz-adv-x="1024" 
d="M0 0v768h256v-768h-256zM0 1024v256h256v-256h-256zM256 -256h256v-256h-256v256zM512 -256v1024h256v-1024h-256zM512 1024v256h256v-256h-256z" />
    <glyph glyph-name="Jcircumflex" unicode="&#x134;" horiz-adv-x="1024" 
d="M0 0v256h512v1024h256v-1024h-256v-256h-512zM256 1536v256h256v256h256v-256h256v-256h-256v256h-256v-256h-256z" />
    <glyph glyph-name="jcircumflex" unicode="&#x135;" horiz-adv-x="768" 
d="M0 -256h256v-256h-256v256zM0 1024v256h256v256h256v-256h256v-256h-256v256h-256v-256h-256zM256 -256v1024h256v-1024h-256z" />
    <glyph glyph-name="Kcedilla" unicode="&#x136;" 
d="M0 0v1280h256v-512h512v256h256v256h256v-256h-256v-256h-256v-256h256v-256h256v-256h-256v256h-256v256h-512v-512h-256zM256 -256h256v256h256v-256h-256v-256h-256v256z" />
    <glyph glyph-name="kcedilla" unicode="&#x137;" 
d="M0 0v1280h256v-768h256v256h256v256h256v-256h-256v-256h256v-512h-256v512h-256v-256h-256v-256h256v-256h-256v-256h-256v256h256v256h-256z" />
    <glyph glyph-name="kra" unicode="&#x138;" horiz-adv-x="1280" 
d="M0 0v1024h256v-512h256v256h256v256h256v-256h-256v-256h256v-512h-256v512h-256v-256h-256v-256h-256z" />
    <glyph glyph-name="Lacute" unicode="&#x139;" horiz-adv-x="1280" 
d="M0 0v1280h256v-1024h768v-256h-1024zM0 1536v256h256v256h256v-256h-256v-256h-256z" />
    <glyph glyph-name="lacute" unicode="&#x13a;" horiz-adv-x="512" 
d="M0 0v1280h256v-1280h-256zM0 1536v256h256v256h256v-256h-256v-256h-256z" />
    <glyph glyph-name="Lcedilla" unicode="&#x13b;" horiz-adv-x="1280" 
d="M0 0v1280h256v-1024h768v-256h-256v-256h-256v-256h-256v256h256v256h-512z" />
    <glyph glyph-name="lcedilla" unicode="&#x13c;" horiz-adv-x="256" 
d="M-256 0v1280h256v-1280h256v-256h-256v-256h-256v256h256v256h-256z" />
    <glyph glyph-name="Lcaron" unicode="&#x13d;" horiz-adv-x="1280" 
d="M0 0v1280h256v-1024h768v-256h-1024zM512 768v256h256v256h256v-256h-256v-256h-256z" />
    <glyph glyph-name="lcaron" unicode="&#x13e;" horiz-adv-x="1280" 
d="M0 0v1280h256v-1280h-256zM512 768v256h256v256h256v-256h-256v-256h-256z" />
    <glyph glyph-name="Ldot" unicode="&#x13f;" 
d="M0 0v1280h256v-1024h768v-256h-1024zM1024 512v256h256v-256h-256z" />
    <glyph glyph-name="ldot" unicode="&#x140;" horiz-adv-x="1024" 
d="M0 0v1280h256v-1280h-256zM512 512v256h256v-256h-256z" />
    <glyph glyph-name="Lslash" unicode="&#x141;" 
d="M0 256v256h256v768h256v-256h256v-256h-256v-512h768v-256h-1024v256h-256z" />
    <glyph glyph-name="lslash" unicode="&#x142;" horiz-adv-x="1024" 
d="M0 256v256h256v768h256v-256h256v-256h-256v-768h-256v256h-256z" />
    <glyph glyph-name="Nacute" unicode="&#x143;" 
d="M0 0v1280h256v-256h256v-256h256v-256h256v768h256v-1280h-256v256h-256v256h-256v256h-256v-768h-256zM512 1536v256h256v256h256v-256h-256v-256h-256z" />
    <glyph glyph-name="nacute" unicode="&#x144;" horiz-adv-x="1280" 
d="M0 0v1024h768v-256h256v-768h-256v768h-512v-768h-256zM256 1280v256h256v256h256v-256h-256v-256h-256z" />
    <glyph glyph-name="Ncedilla" unicode="&#x145;" 
d="M0 0v1280h256v-256h256v-256h256v-256h256v768h256v-1280h-256v256h-256v256h-256v256h-256v-768h-256zM256 -256h256v256h256v-256h-256v-256h-256v256z" />
    <glyph glyph-name="ncedilla" unicode="&#x146;" horiz-adv-x="1280" 
d="M0 0v1024h768v-256h256v-768h-256v768h-512v-768h256v-256h-256v-256h-256v256h256v256h-256z" />
    <glyph glyph-name="Ncaron" unicode="&#x147;" 
d="M0 0v1280h256v-256h256v-256h256v-256h256v768h256v-1280h-256v256h-256v256h-256v256h-256v-768h-256zM256 1792v256h256v-256h256v256h256v-256h-256v-256h-256v256h-256z" />
    <glyph glyph-name="ncaron" unicode="&#x148;" horiz-adv-x="1280" 
d="M0 0v1024h768v-256h256v-768h-256v768h-512v-768h-256zM0 1536v256h256v-256h512v256h256v-256h-256v-256h-512v256h-256z" />
    <glyph glyph-name="napostrophe" unicode="&#x149;" horiz-adv-x="1792" 
d="M0 768v256h256v256h256v-256h768v-256h256v-768h-256v768h-512v-768h-256v1024h-256v-256h-256z" />
    <glyph glyph-name="Eng" unicode="&#x14a;" 
d="M0 0v1280h256v-256h256v-256h256v-256h256v768h256v-1280h-256v-256h-256v256h256v256h-256v256h-256v256h-256v-768h-256z" />
    <glyph glyph-name="eng" unicode="&#x14b;" horiz-adv-x="1280" 
d="M0 0v1024h768v-256h256v-768h-256v-256h-256v256h256v768h-512v-768h-256z" />
    <glyph glyph-name="Omacron" unicode="&#x14c;" 
d="M0 256v768h256v256h768v-256h256v-768h-256v-256h-768v256h-256zM256 266h768v748h-768v-748zM256 1536v256h768v-256h-768z" />
    <glyph glyph-name="omacron" unicode="&#x14d;" horiz-adv-x="1280" 
d="M0 256v512h256v256h512v-256h256v-512h-256v-256h-512v256h-256zM0 1280v256h1024v-256h-1024zM256 266h512v492h-512v-492z" />
    <glyph glyph-name="Obreve" unicode="&#x14e;" 
d="M0 256v768h256v256h768v-256h256v-768h-256v-256h-768v256h-256zM256 266h768v748h-768v-748zM256 1792v256h256v-256h256v256h256v-256h-256v-256h-256v256h-256z" />
    <glyph glyph-name="obreve" unicode="&#x14f;" horiz-adv-x="1280" 
d="M0 256v512h256v256h512v-256h256v-512h-256v-256h-512v256h-256zM0 1536v256h256v-256h512v256h256v-256h-256v-256h-512v256h-256zM256 266h512v492h-512v-492z" />
    <glyph glyph-name="Odblacute" unicode="&#x150;" 
d="M0 256v768h256v256h768v-256h256v-768h-256v-256h-768v256h-256zM256 266h768v748h-768v-748zM256 1536v256h256v256h256v-256h256v256h256v-256h-256v-256h-256v256h-256v-256h-256z" />
    <glyph glyph-name="odblacute" unicode="&#x151;" horiz-adv-x="1280" 
d="M0 256v512h256v256h512v-256h256v-512h-256v-256h-512v256h-256zM0 1280v256h256v256h256v-256h256v256h256v-256h-256v-256h-256v256h-256v-256h-256zM256 266h512v492h-512v-492z" />
    <glyph glyph-name="OE" unicode="&#x152;" horiz-adv-x="2560" 
d="M0 256v768h256v256h2048v-256h-1024v-256h768v-256h-768v-256h1024v-256h-2048v256h-256zM256 266h768v748h-768v-748z" />
    <glyph glyph-name="oe" unicode="&#x153;" horiz-adv-x="2048" 
d="M0 256v512h256v256h512v-256h256v256h768v-512h-256v-256h256v-256h-768v256h-256v-256h-512v256h-256zM256 266h512v492h-512v-492zM1024 266h256v256h256v236h-512v-492z" />
    <glyph glyph-name="Racute" unicode="&#x154;" 
d="M0 0v1280h1024v-256h256v-256h-256v-512h256v-256h-256v256h-256v256h-512v-512h-256zM256 768h758v256h-758v-256zM256 1536v256h256v256h256v-256h-256v-256h-256z" />
    <glyph glyph-name="racute" unicode="&#x155;" horiz-adv-x="1024" 
d="M0 0v1024h256v-256h256v256h256v-256h-256v-256h-256v-512h-256zM256 1280v256h256v256h256v-256h-256v-256h-256z" />
    <glyph glyph-name="Rcedilla" unicode="&#x156;" 
d="M0 0v1280h1024v-256h256v-256h-256v-512h256v-256h-256v256h-256v256h-512v-512h-256zM256 -256h256v256h256v-256h-256v-256h-256v256zM256 768h758v256h-758v-256z" />
    <glyph glyph-name="rcedilla" unicode="&#x157;" horiz-adv-x="1024" 
d="M0 0v1024h256v-256h256v256h256v-256h-256v-256h-256v-512h256v-256h-256v-256h-256v256h256v256h-256z" />
    <glyph glyph-name="Rcaron" unicode="&#x158;" 
d="M0 0v1280h1024v-256h256v-256h-256v-512h256v-256h-256v256h-256v256h-512v-512h-256zM256 768h758v256h-758v-256zM256 1792v256h256v-256h256v256h256v-256h-256v-256h-256v256h-256z" />
    <glyph glyph-name="rcaron" unicode="&#x159;" horiz-adv-x="1024" 
d="M0 0v1024h256v-256h256v256h256v-256h-256v-256h-256v-512h-256zM0 1536v256h256v-256h256v256h256v-256h-256v-256h-256v256h-256z" />
    <glyph glyph-name="Sacute" unicode="&#x15a;" 
d="M0 0v256h1024v256h-768v256h-256v256h256v256h1024v-256h-1024v-256h768v-256h256v-256h-256v-256h-1024zM512 1536v256h256v256h256v-256h-256v-256h-256z" />
    <glyph glyph-name="sacute" unicode="&#x15b;" horiz-adv-x="1280" 
d="M0 0v256h512v256h-512v256h256v256h768v-256h-512v-256h512v-256h-256v-256h-768zM256 1280v256h256v256h256v-256h-256v-256h-256z" />
    <glyph glyph-name="Scircumflex" unicode="&#x15c;" 
d="M0 0v256h1024v256h-768v256h-256v256h256v256h1024v-256h-1024v-256h768v-256h256v-256h-256v-256h-1024zM256 1536v256h256v256h256v-256h256v-256h-256v256h-256v-256h-256z" />
    <glyph glyph-name="scircumflex" unicode="&#x15d;" horiz-adv-x="1280" 
d="M0 0v256h512v256h-512v256h256v256h768v-256h-512v-256h512v-256h-256v-256h-768zM0 1280v256h256v256h512v-256h256v-256h-256v256h-512v-256h-256z" />
    <glyph glyph-name="Scedilla" unicode="&#x15e;" 
d="M0 0v256h1024v256h-768v256h-256v256h256v256h1024v-256h-1024v-256h768v-256h256v-256h-256v-256h-256v-256h-256v-256h-256v256h256v256h-512z" />
    <glyph glyph-name="scedilla" unicode="&#x15f;" horiz-adv-x="1280" 
d="M0 0v256h512v256h-512v256h256v256h768v-256h-512v-256h512v-256h-256v-256h-256v-256h-256v-256h-256v256h256v256h-256z" />
    <glyph glyph-name="Scaron" unicode="&#x160;" 
d="M0 0v256h1024v256h-768v256h-256v256h256v256h1024v-256h-1024v-256h768v-256h256v-256h-256v-256h-1024zM256 1792v256h256v-256h256v256h256v-256h-256v-256h-256v256h-256z" />
    <glyph glyph-name="scaron" unicode="&#x161;" horiz-adv-x="1280" 
d="M0 0v256h512v256h-512v256h256v256h768v-256h-512v-256h512v-256h-256v-256h-768zM0 1536v256h256v-256h512v256h256v-256h-256v-256h-512v256h-256z" />
    <glyph glyph-name="Tcedilla" unicode="&#x162;" 
d="M0 1024v256h1280v-256h-512v-1024h256v-256h-256v-256h-256v256h256v256h-256v1024h-512z" />
    <glyph glyph-name="tcedilla" unicode="&#x163;" horiz-adv-x="1024" 
d="M0 768v256h256v256h256v-256h256v-256h-256v-768h256v-256h-256v-256h-256v256h256v256h-256v768h-256z" />
    <glyph glyph-name="Tcaron" unicode="&#x164;" 
d="M0 1024v256h1280v-256h-512v-1024h-256v1024h-512zM256 1792v256h256v-256h256v256h256v-256h-256v-256h-256v256h-256z" />
    <glyph glyph-name="tcaron" unicode="&#x165;" horiz-adv-x="1024" 
d="M0 768v256h256v256h256v256h256v-256h256v-256h-256v-256h-256v-768h-256v768h-256zM522 1024h236v256h-236v-256z" />
    <glyph glyph-name="Tbar" unicode="&#x166;" 
d="M0 1024v256h1280v-256h-512v-256h256v-256h-256v-512h-256v512h-256v256h256v256h-512z" />
    <glyph glyph-name="tbar" unicode="&#x167;" horiz-adv-x="1024" 
d="M0 256v256h256v256h-256v256h256v256h256v-256h256v-256h-256v-256h256v-256h-256v-256h-256v256h-256z" />
    <glyph glyph-name="Utilde" unicode="&#x168;" 
d="M0 256v1024h256v-1024h768v1024h256v-1024h-256v-256h-768v256h-256zM256 1538v256h256v256h256v-256h256v256h256v-256h-256v-256h-256v256h-256v-256h-256z" />
    <glyph glyph-name="utilde" unicode="&#x169;" horiz-adv-x="1280" 
d="M0 256v768h256v-768h512v768h256v-1024h-768v256h-256zM0 1280v256h256v256h256v-256h256v256h256v-256h-256v-256h-256v256h-256v-256h-256z" />
    <glyph glyph-name="Umacron" unicode="&#x16a;" 
d="M0 256v1024h256v-1024h768v1024h256v-1024h-256v-256h-768v256h-256zM256 1536v256h768v-256h-768z" />
    <glyph glyph-name="umacron" unicode="&#x16b;" horiz-adv-x="1280" 
d="M0 256v768h256v-768h512v768h256v-1024h-768v256h-256zM0 1280v256h1024v-256h-1024z" />
    <glyph glyph-name="Ubreve" unicode="&#x16c;" 
d="M0 256v1024h256v-1024h768v1024h256v-1024h-256v-256h-768v256h-256zM256 1792v256h256v-256h256v256h256v-256h-256v-256h-256v256h-256z" />
    <glyph glyph-name="ubreve" unicode="&#x16d;" horiz-adv-x="1280" 
d="M0 256v768h256v-768h512v768h256v-1024h-768v256h-256zM0 1536v256h256v-256h512v256h256v-256h-256v-256h-512v256h-256z" />
    <glyph glyph-name="Uring" unicode="&#x16e;" 
d="M0 256v1024h256v-1024h768v1024h256v-1024h-256v-256h-768v256h-256zM256 1536v256h256v256h256v-256h256v-256h-256v-256h-256v256h-256zM512 1546h256v236h-256v-236z" />
    <glyph glyph-name="uring" unicode="&#x16f;" horiz-adv-x="1280" 
d="M0 256v768h256v-768h512v768h256v-1024h-768v256h-256zM0 1536v256h256v256h512v-256h256v-256h-256v-256h-512v256h-256zM256 1546h512v236h-512v-236z" />
    <glyph glyph-name="Udblacute" unicode="&#x170;" 
d="M0 256v1024h256v-1024h768v1024h256v-1024h-256v-256h-768v256h-256zM256 1536v256h256v256h256v-256h256v256h256v-256h-256v-256h-256v256h-256v-256h-256z" />
    <glyph glyph-name="udblacute" unicode="&#x171;" horiz-adv-x="1280" 
d="M0 256v768h256v-768h512v768h256v-1024h-768v256h-256zM0 1280v256h256v256h256v-256h256v256h256v-256h-256v-256h-256v256h-256v-256h-256z" />
    <glyph glyph-name="Uogonek" unicode="&#x172;" 
d="M0 256v1024h256v-1024h768v1024h256v-1024h-256v-256h-256v-256h256v-256h-256v256h-256v256h-256v256h-256z" />
    <glyph glyph-name="uogonek" unicode="&#x173;" horiz-adv-x="1280" 
d="M0 256v768h256v-768h512v768h256v-1024h-256v-256h256v-256h-256v256h-256v256h-256v256h-256z" />
    <glyph glyph-name="Wcircumflex" unicode="&#x174;" horiz-adv-x="2048" 
d="M0 256v1024h256v-1024h512v1024h256v-1024h512v1024h256v-1024h-256v-256h-512v256h-256v-256h-512v256h-256zM512 1536v256h256v256h256v-256h256v-256h-256v256h-256v-256h-256z" />
    <glyph glyph-name="wcircumflex" unicode="&#x175;" horiz-adv-x="2048" 
d="M0 256v768h256v-768h512v768h256v-768h512v768h256v-768h-256v-256h-512v256h-256v-256h-512v256h-256zM512 1280v256h256v256h256v-256h256v-256h-256v256h-256v-256h-256z" />
    <glyph glyph-name="Ycircumflex" unicode="&#x176;" 
d="M0 1024v256h256v-256h256v-256h256v256h256v256h256v-256h-256v-256h-256v-768h-256v768h-256v256h-256zM256 1536v256h256v256h256v-256h256v-256h-256v256h-256v-256h-256z" />
    <glyph glyph-name="ycircumflex" unicode="&#x177;" horiz-adv-x="1280" 
d="M0 256v768h256v-768h512v768h256v-1280h-256v-256h-512v256h512v256h-512v256h-256zM0 1280v256h256v256h512v-256h256v-256h-256v256h-512v-256h-256z" />
    <glyph glyph-name="Ydieresis" unicode="&#x178;" 
d="M0 1024v256h256v-256h256v-256h256v256h256v256h256v-256h-256v-256h-256v-768h-256v768h-256v256h-256zM256 1536v256h256v-256h-256zM768 1536v256h256v-256h-256z" />
    <glyph glyph-name="Zacute" unicode="&#x179;" 
d="M0 0v256h256v256h256v256h256v256h-768v256h1280v-256h-256v-256h-256v-256h-256v-256h768v-256h-1280zM512 1536v256h256v256h256v-256h-256v-256h-256z" />
    <glyph glyph-name="zacute" unicode="&#x17a;" horiz-adv-x="1280" 
d="M0 0v256h256v256h256v256h-512v256h1024v-256h-256v-256h-256v-256h512v-256h-1024zM256 1280v256h256v256h256v-256h-256v-256h-256z" />
    <glyph glyph-name="Zdot" unicode="&#x17b;" 
d="M0 0v256h256v256h256v256h256v256h-768v256h1280v-256h-256v-256h-256v-256h-256v-256h768v-256h-1280zM512 1536v256h256v-256h-256z" />
    <glyph glyph-name="zdot" unicode="&#x17c;" horiz-adv-x="1280" 
d="M0 0v256h256v256h256v256h-512v256h1024v-256h-256v-256h-256v-256h512v-256h-1024zM512 1280v256h256v-256h-256z" />
    <glyph glyph-name="Zcaron" unicode="&#x17d;" 
d="M0 0v256h256v256h256v256h256v256h-768v256h1280v-256h-256v-256h-256v-256h-256v-256h768v-256h-1280zM256 1792v256h256v-256h256v256h256v-256h-256v-256h-256v256h-256z" />
    <glyph glyph-name="zcaron" unicode="&#x17e;" horiz-adv-x="1280" 
d="M0 0v256h256v256h256v256h-512v256h1024v-256h-256v-256h-256v-256h512v-256h-1024zM0 1536v256h256v-256h512v256h256v-256h-256v-256h-512v256h-256z" />
    <glyph glyph-name="slong" unicode="&#x17f;" horiz-adv-x="768" 
d="M0 0v1024h256v256h256v-256h-256v-1024h-256z" />
    <glyph glyph-name="bbar" unicode="&#x180;" horiz-adv-x="1280" 
d="M0 0v1024h256v256h-256v256h256v-256h256v256h256v-256h-256v-256h256v-256h256v-512h-256v-256h-768zM256 256h502v512h-502v-512z" />
    <glyph glyph-name="Bhook" unicode="&#x181;" horiz-adv-x="1792" 
d="M0 1024v256h1280v-256h256v-256h-256v-256h256v-256h-256v-256h-1024v1024h-256zM512 256h758v256h-758v-256zM512 768h758v256h-758v-256z" />
    <glyph glyph-name="Btopbar" unicode="&#x182;" 
d="M0 0v1280h1024v-256h-768v-256h768v-256h256v-256h-256v-256h-1024zM256 256h758v256h-758v-256z" />
    <glyph glyph-name="btopbar" unicode="&#x183;" horiz-adv-x="1280" 
d="M0 0v1280h1024v-256h-768v-256h512v-256h256v-256h-256v-256h-768zM256 256h502v256h-502v-256z" />
    <glyph glyph-name="Tonesix" unicode="&#x184;" horiz-adv-x="1792" 
d="M0 768v256h256v256h256v-512h768v-256h256v-256h-256v-256h-1024v768h-256zM512 256h758v256h-758v-256z" />
    <glyph glyph-name="tonesix" unicode="&#x185;" 
d="M0 768v256h256v256h256v-512h512v-256h256v-256h-256v-256h-768v768h-256zM512 256h502v256h-502v-256z" />
    <glyph glyph-name="Oopen" unicode="&#x186;" 
d="M0 256v256h256v-256h768v768h-768v-256h-256v256h256v256h768v-256h256v-768h-256v-256h-768v256h-256z" />
    <glyph glyph-name="Chook" unicode="&#x187;" horiz-adv-x="1792" 
d="M0 256v768h256v256h768v-256h256v256h256v-256h-256v-256h-256v256h-768v-768h768v256h256v-256h-256v-256h-768v256h-256z" />
    <glyph glyph-name="chook" unicode="&#x188;" 
d="M0 256v512h256v256h768v-256h-768v-512h768v-256h-768v256h-256zM1024 1024v256h256v-256h-256z" />
    <glyph glyph-name="Dbar" unicode="&#x189;" horiz-adv-x="1792" 
d="M0 512v256h256v512h1024v-256h256v-768h-256v-256h-1024v512h-256zM512 256h758v768h-758v-256h256v-256h-256v-256z" />
    <glyph glyph-name="Dhook" unicode="&#x18a;" horiz-adv-x="1792" 
d="M0 1024v256h1280v-256h256v-768h-256v-256h-1024v1024h-256zM512 256h758v768h-758v-768z" />
    <glyph glyph-name="Dtopbar" unicode="&#x18b;" 
d="M0 256v256h256v256h768v256h-768v256h1024v-1280h-1024v256h-256zM266 256h758v256h-758v-256z" />
    <glyph glyph-name="dtopbar" unicode="&#x18c;" horiz-adv-x="1280" 
d="M0 256v256h256v256h512v256h-768v256h1024v-1280h-768v256h-256zM266 256h502v256h-502v-256z" />
    <glyph glyph-name="deltaturn" unicode="&#x18d;" horiz-adv-x="1280" 
d="M0 256v512h256v256h512v-256h256v-512h-256v-256h256v-256h-256v-256h-512v256h512v256h-512v256h-256zM256 266h512v492h-512v-492z" />
    <glyph glyph-name="Eturn" unicode="&#x18e;" 
d="M0 0v256h1024v256h-768v256h768v256h-1024v256h1280v-1280h-1280z" />
    <glyph glyph-name="Schwa" unicode="&#x18f;" horiz-adv-x="1280" 
d="M0 0v256h256v256h-256v512h768v-256h256v-512h-256v-256h-768zM256 522h256v-256h256v492h-512v-236z" />
    <glyph glyph-name="Epsilonlatin" unicode="&#x190;" 
d="M0 256v256h256v256h-256v256h256v256h768v-256h256v-256h-256v256h-768v-256h512v-256h-512v-256h768v256h256v-256h-256v-256h-768v256h-256z" />
    <glyph glyph-name="Fhook" unicode="&#x191;" horiz-adv-x="1792" 
d="M0 0h256v1280h1280v-256h-1024v-256h768v-256h-768v-512h-256v-256h-256v256z" />
    <glyph glyph-name="florin" unicode="&#x192;" horiz-adv-x="1024" 
d="M0 0h256v1024h256v256h256v-256h-256v-256h256v-256h-256v-512h-256v-256h-256v256z" />
    <glyph glyph-name="Ghook" unicode="&#x193;" horiz-adv-x="1792" 
d="M0 256v768h256v256h1024v256h256v-256h-256v-256h-1024v-768h768v256h-512v256h768v-768h-1024v256h-256z" />
    <glyph glyph-name="Gammalatin" unicode="&#x194;" 
d="M0 768v512h256v-512h256v-256h256v256h256v512h256v-512h-256v-256h-256v-512h-256v512h-256v256h-256z" />
    <glyph glyph-name="hv" unicode="&#x195;" horiz-adv-x="2048" 
d="M0 0v1280h256v-256h512v-256h256v-512h512v768h256v-768h-256v-256h-512v256h-256v512h-512v-768h-256z" />
    <glyph glyph-name="Iotalatin" unicode="&#x196;" horiz-adv-x="768" 
d="M0 256v1024h256v-1024h256v-256h-256v256h-256z" />
    <glyph glyph-name="Ibar" unicode="&#x197;" horiz-adv-x="1024" 
d="M0 512v256h256v512h256v-512h256v-256h-256v-512h-256v512h-256z" />
    <glyph glyph-name="Khook" unicode="&#x198;" 
d="M0 0v1280h256v-512h256v256h256v256h256v-256h256v-256h-256v256h-256v-512h256v-256h256v-256h-256v256h-256v256h-512v-512h-256z" />
    <glyph glyph-name="khook" unicode="&#x199;" horiz-adv-x="1280" 
d="M0 0v1024h256v256h256v-256h-256v-512h256v256h256v256h256v-256h-256v-256h256v-512h-256v512h-256v-256h-256v-256h-256z" />
    <glyph glyph-name="lbar" unicode="&#x19a;" horiz-adv-x="1024" 
d="M0 512v256h256v512h256v-512h256v-256h-256v-512h-256v512h-256z" />
    <glyph glyph-name="lambdabar" unicode="&#x19b;" horiz-adv-x="1280" 
d="M0 -256v512h256v256h256v256h-512v256h512v-256h256v256h256v-256h-256v-256h256v-768h-256v512h-512v-512h-256z" />
    <glyph glyph-name="mcapturn" unicode="&#x19c;" horiz-adv-x="2048" 
d="M0 256v768h256v-768h512v768h256v-768h512v768h256v-1024h-768v256h-256v-256h-512v256h-256z" />
    <glyph glyph-name="Nhook" unicode="&#x19d;" horiz-adv-x="1792" 
d="M0 0h256v1280h256v-256h256v-256h256v-256h256v768h256v-1280h-256v256h-256v256h-256v256h-256v-768h-256v-256h-256v256z" />
    <glyph glyph-name="nleg" unicode="&#x19e;" horiz-adv-x="1280" 
d="M0 0v1024h768v-256h256v-1024h-256v1024h-512v-768h-256z" />
    <glyph glyph-name="Obar" unicode="&#x19f;" 
d="M0 256v768h256v256h768v-256h256v-768h-256v-256h-768v256h-256zM256 266h768v246h-768v-246zM256 768h768v246h-768v-246z" />
    <glyph glyph-name="Ohorn" unicode="&#x1a0;" horiz-adv-x="1792" 
d="M0 256v768h256v256h768v-256h256v256h256v-256h-256v-768h-256v-256h-768v256h-256zM256 266h768v748h-768v-748z" />
    <glyph glyph-name="ohorn" unicode="&#x1a1;" 
d="M0 256v512h256v256h512v-256h256v256h256v-256h-256v-512h-256v-256h-512v256h-256zM256 266h512v492h-512v-492z" />
    <glyph glyph-name="OI" unicode="&#x1a2;" horiz-adv-x="1792" 
d="M0 512v512h256v256h1280v-1280h-256v1024h-256v-512h-256v-256h-512v256h-256zM256 522h512v492h-512v-492z" />
    <glyph glyph-name="oi" unicode="&#x1a3;" horiz-adv-x="1792" 
d="M0 256v512h256v256h1280v-1280h-256v1024h-256v-512h-256v-256h-512v256h-256zM256 266h512v492h-512v-492z" />
    <glyph glyph-name="Phook" unicode="&#x1a4;" horiz-adv-x="1792" 
d="M0 1024v256h1280v-256h256v-256h-256v-256h-768v-512h-256v1024h-256zM512 768h758v256h-758v-256z" />
    <glyph glyph-name="phook" unicode="&#x1a5;" horiz-adv-x="1280" 
d="M0 -256v1280h256v256h256v-256h-256v-256h512v-256h256v-256h-256v-256h-512v-256h-256zM256 256h512v256h-512v-256z" />
    <glyph glyph-name="YR" unicode="&#x1a6;" 
d="M0 0v1536h256v-256h768v-256h256v-256h-256v-512h256v-256h-256v256h-256v256h-512v-512h-256zM256 768h758v256h-758v-256z" />
    <glyph glyph-name="Tonetwo" unicode="&#x1a7;" 
d="M0 256v256h256v256h768v256h-1024v256h1024v-256h256v-256h-256v-256h-768v-256h1024v-256h-1024v256h-256z" />
    <glyph glyph-name="tonetwo" unicode="&#x1a8;" horiz-adv-x="1280" 
d="M0 256v256h512v256h-512v256h768v-256h256v-256h-512v-256h512v-256h-768v256h-256z" />
    <glyph glyph-name="Esh" unicode="&#x1a9;" 
d="M0 0v256h256v256h256v256h-256v256h-256v256h1280v-512h-256v256h-512v-256h256v-256h-256v-256h512v256h256v-512h-1280z" />
    <glyph glyph-name="eshlooprev" unicode="&#x1aa;" horiz-adv-x="1024" 
d="M0 1024v256h256v-256h256v-1024h256v-256h-256v256h-256v1024h-256z" />
    <glyph glyph-name="tpalatalhook" unicode="&#x1ab;" horiz-adv-x="1024" 
d="M0 768v256h256v256h256v-256h256v-256h-256v-768h256v-256h-256v-256h-256v256h256v256h-256v768h-256z" />
    <glyph glyph-name="Thook" unicode="&#x1ac;" 
d="M0 768v256h256v256h1024v-256h-512v-1024h-256v1024h-256v-256h-256z" />
    <glyph glyph-name="thook" unicode="&#x1ad;" horiz-adv-x="768" 
d="M0 256v768h256v256h256v-256h-256v-256h256v-256h-256v-256h256v-256h-256v256h-256z" />
    <glyph glyph-name="Trthook" unicode="&#x1ae;" 
d="M0 1024v256h1280v-256h-512v-1024h256v-256h-256v256h-256v1024h-512z" />
    <glyph glyph-name="Uhorn" unicode="&#x1af;" horiz-adv-x="1792" 
d="M0 256v1024h256v-1024h768v1024h256v256h256v-256h-256v-1024h-256v-256h-768v256h-256z" />
    <glyph glyph-name="uhorn" unicode="&#x1b0;" 
d="M0 256v768h256v-768h512v768h256v256h256v-256h-256v-1024h-768v256h-256z" />
    <glyph glyph-name="Upsilonlatin" unicode="&#x1b1;" 
d="M0 256v768h256v256h256v-256h-256v-768h768v768h-256v256h256v-256h256v-768h-256v-256h-768v256h-256z" />
    <glyph glyph-name="Vcursive" unicode="&#x1b2;" 
d="M0 256v1024h256v-1024h768v768h-256v256h256v-256h256v-768h-256v-256h-768v256h-256z" />
    <glyph glyph-name="Yhook" unicode="&#x1b3;" horiz-adv-x="1792" 
d="M0 768v256h256v256h256v-256h256v-256h256v256h256v256h256v-256h-256v-256h-256v-768h-256v768h-256v256h-256v-256h-256z" />
    <glyph glyph-name="yhook" unicode="&#x1b4;" 
d="M0 256v768h256v-768h512v768h256v256h256v-256h-256v-1280h-256v-256h-512v256h512v256h-512v256h-256z" />
    <glyph glyph-name="Zbar" unicode="&#x1b5;" 
d="M0 0v256h256v256h-256v256h768v256h-768v256h1280v-256h-256v-256h256v-256h-768v-256h768v-256h-1280z" />
    <glyph glyph-name="zbar" unicode="&#x1b6;" horiz-adv-x="1280" 
d="M0 0v256h256v256h256v256h-512v256h1024v-256h-256v-512h256v-256h-1024z" />
    <glyph glyph-name="Yogh" unicode="&#x1b7;" horiz-adv-x="1280" 
d="M0 0v256h768v256h-512v256h256v256h-512v256h1024v-256h-256v-512h256v-256h-256v-256h-768z" />
    <glyph glyph-name="Yoghrev" unicode="&#x1b8;" horiz-adv-x="1280" 
d="M0 256v256h256v512h-256v256h1024v-256h-512v-256h256v-256h-512v-256h768v-256h-768v256h-256z" />
    <glyph glyph-name="yoghrev" unicode="&#x1b9;" horiz-adv-x="1280" 
d="M0 0v256h256v512h-256v256h1024v-256h-512v-256h256v-256h-512v-256h768v-256h-768v256h-256z" />
    <glyph glyph-name="yoghtail" unicode="&#x1ba;" horiz-adv-x="1280" 
d="M0 0v256h256v256h256v256h-512v256h1024v-256h-256v-256h256v-256h-768v-256h512v-256h-512v256h-256z" />
    <glyph glyph-name="twobar" unicode="&#x1bb;" 
d="M0 0v256h256v256h-256v256h1024v256h256v-512h-768v-256h768v-256h-1280zM0 1024v256h1024v-256h-1024z" />
    <glyph glyph-name="Tonefive" unicode="&#x1bc;" 
d="M0 0v256h1024v256h-768v256h-256v512h1280v-256h-1024v-256h768v-256h256v-256h-256v-256h-1024z" />
    <glyph glyph-name="tonefive" unicode="&#x1bd;" horiz-adv-x="1280" 
d="M0 0h768v256h-512v256h-256v512h1024v-256h-768v-256h512v-256h256v-256h-256v-256h-768v256z" />
    <glyph glyph-name="glottalstopbarinv" unicode="&#x1be;" horiz-adv-x="1024" 
d="M0 0v256h512v256h-256v256h-256v256h256v256h256v-256h256v-256h-256v-256h256v-256h-256v-256h-512z" />
    <glyph glyph-name="wynn" unicode="&#x1bf;" horiz-adv-x="1280" 
d="M0 -512v1536h768v-256h256v-768h-256v-256h-256v-256h-512zM256 -256h256v256h256v768h-512v-1024z" />
    <glyph glyph-name="pipe" unicode="&#x1c0;" horiz-adv-x="512" 
d="M0 0v1280h256v-1280h-256z" />
    <glyph glyph-name="pipedbl" unicode="&#x1c1;" horiz-adv-x="1024" 
d="M0 0v1280h256v-1280h-256zM512 0v1280h256v-1280h-256z" />
    <glyph glyph-name="pipedblbar" unicode="&#x1c2;" horiz-adv-x="1024" 
d="M0 256v256h256v256h-256v256h256v256h256v-256h256v-256h-256v-256h256v-256h-256v-256h-256v256h-256z" />
    <glyph glyph-name="exclamlatin" unicode="&#x1c3;" horiz-adv-x="768" 
d="M256 0v256h256v-256h-256zM256 512v768h256v-768h-256z" />
    <glyph glyph-name="DZhacek" unicode="&#x1c4;" horiz-adv-x="3072" 
d="M0 0v1280h1024v-256h256v-768h-256v-256h-1024zM256 256h758v768h-758v-768zM1536 0v256h256v256h256v256h256v256h-768v256h1280v-256h-256v-256h-256v-256h-256v-256h768v-256h-1280zM1792 1792v256h256v-256h256v256h256v-256h-256v-256h-256v256h-256z" />
    <glyph glyph-name="Dzhacek" unicode="&#x1c5;" horiz-adv-x="2816" 
d="M0 0v1280h1024v-256h256v-768h-256v-256h-1024zM256 256h758v768h-758v-768zM1536 0v256h256v256h256v256h-512v256h1024v-256h-256v-256h-256v-256h512v-256h-1024zM1536 1536v256h256v-256h512v256h256v-256h-256v-256h-512v256h-256z" />
    <glyph glyph-name="dzhacek" unicode="&#x1c6;" horiz-adv-x="2560" 
d="M0 256v512h256v256h512v256h256v-1280h-768v256h-256zM266 256h502v512h-502v-512zM1280 0v256h256v256h256v256h-512v256h1024v-256h-256v-256h-256v-256h512v-256h-1024zM1280 1536v256h256v-256h512v256h256v-256h-256v-256h-512v256h-256z" />
    <glyph glyph-name="LJ" unicode="&#x1c7;" horiz-adv-x="2048" 
d="M0 0v1280h256v-1024h510v-256h-766zM1016 0v256h520v1024h256v-1024h-256v-256h-520z" />
    <glyph glyph-name="Lj" unicode="&#x1c8;" 
d="M0 0v1280h256v-1024h512v-256h-768zM768 -256h256v-256h-256v256zM1024 -256v1024h256v-1024h-256zM1024 1024v256h256v-256h-256z" />
    <glyph glyph-name="lj" unicode="&#x1c9;" horiz-adv-x="1024" 
d="M0 0v1280h256v-1280h-256zM256 -256h256v-256h-256v256zM512 -256v1024h256v-1024h-256zM512 1024v256h256v-256h-256z" />
    <glyph glyph-name="NJ" unicode="&#x1ca;" horiz-adv-x="2560" 
d="M0 0v1280h256v-256h256v-256h256v-256h256v768h256v-1280h-256v256h-256v256h-256v256h-256v-768h-256zM1528 0v256h520v1024h256v-1024h-256v-256h-520z" />
    <glyph glyph-name="Nj" unicode="&#x1cb;" horiz-adv-x="2048" 
d="M0 0v1280h256v-256h256v-256h256v-256h256v768h256v-1280h-256v256h-256v256h-256v256h-256v-768h-256zM1280 -256h256v-256h-256v256zM1536 -256v1024h256v-1024h-256zM1536 1024v256h256v-256h-256z" />
    <glyph glyph-name="nj" unicode="&#x1cc;" horiz-adv-x="1792" 
d="M0 0v1024h768v-256h256v-768h-256v768h-512v-768h-256zM1024 -256h256v-256h-256v256zM1280 -256v1024h256v-1024h-256zM1280 1024v256h256v-256h-256z" />
    <glyph glyph-name="Ahacek" unicode="&#x1cd;" 
d="M0 0v1024h256v256h768v-256h256v-1024h-256v512h-768v-512h-256zM256 768h768v246h-768v-246zM256 1792v256h256v-256h256v256h256v-256h-256v-256h-256v256h-256z" />
    <glyph glyph-name="ahacek" unicode="&#x1ce;" horiz-adv-x="1280" 
d="M0 256v512h256v256h512v-256h256v-768h-768v256h-256zM0 1536v256h256v-256h512v256h256v-256h-256v-256h-512v256h-256zM256 266h512v492h-512v-492z" />
    <glyph glyph-name="Ihacek" unicode="&#x1cf;" horiz-adv-x="512" 
d="M-256 1792v256h256v-256h256v256h256v-256h-256v-256h-256v256h-256zM0 0v1280h256v-1280h-256z" />
    <glyph glyph-name="ihacek" unicode="&#x1d0;" horiz-adv-x="512" 
d="M-256 1280v256h256v-256h256v256h256v-256h-256v-256h-256v256h-256zM0 0v768h256v-768h-256z" />
    <glyph glyph-name="Ohacek" unicode="&#x1d1;" 
d="M0 256v768h256v256h768v-256h256v-768h-256v-256h-768v256h-256zM256 266h768v748h-768v-748zM256 1792v256h256v-256h256v256h256v-256h-256v-256h-256v256h-256z" />
    <glyph glyph-name="ohacek" unicode="&#x1d2;" horiz-adv-x="1280" 
d="M0 256v512h256v256h512v-256h256v-512h-256v-256h-512v256h-256zM0 1536v256h256v-256h512v256h256v-256h-256v-256h-512v256h-256zM256 266h512v492h-512v-492z" />
    <glyph glyph-name="Uhacek" unicode="&#x1d3;" 
d="M0 256v1024h256v-1024h768v1024h256v-1024h-256v-256h-768v256h-256zM256 1792v256h256v-256h256v256h256v-256h-256v-256h-256v256h-256z" />
    <glyph glyph-name="uhacek" unicode="&#x1d4;" horiz-adv-x="1280" 
d="M0 256v768h256v-768h512v768h256v-1024h-768v256h-256zM0 1536v256h256v-256h512v256h256v-256h-256v-256h-512v256h-256z" />
    <glyph glyph-name="Udieresismacron" unicode="&#x1d5;" 
d="M0 256v1024h256v-1024h768v1024h256v-1024h-256v-256h-768v256h-256zM256 1536v512h768v-512h-256v256h-256v-256h-256z" />
    <glyph glyph-name="udieresismacron" unicode="&#x1d6;" horiz-adv-x="1280" 
d="M0 256v768h256v-768h512v768h256v-1024h-768v256h-256zM0 1280v512h1024v-512h-256v256h-512v-256h-256z" />
    <glyph glyph-name="Udieresisacute" unicode="&#x1d7;" 
d="M0 256v1024h256v-1024h768v1024h256v-1024h-256v-256h-768v256h-256zM0 1536v256h256v256h256v256h256v-256h-256v-256h-256v-256h-256zM768 1536v256h256v-256h-256z" />
    <glyph glyph-name="udieresisacute" unicode="&#x1d8;" horiz-adv-x="1280" 
d="M0 256v768h256v-768h512v768h256v-1024h-768v256h-256zM0 1280v256h256v256h256v256h256v-256h-256v-256h-256v-256h-256zM768 1280v256h256v-256h-256z" />
    <glyph glyph-name="Udieresishacek" unicode="&#x1d9;" 
d="M0 256v1024h256v-1024h768v1024h256v-1024h-256v-256h-768v256h-256zM256 1536v256h256v256h-256v256h256v-256h256v256h256v-256h-256v-256h256v-256h-256v256h-256v-256h-256z" />
    <glyph glyph-name="udieresishacek" unicode="&#x1da;" horiz-adv-x="1280" 
d="M0 256v768h256v-768h512v768h256v-1024h-768v256h-256zM0 1280v256h256v256h-256v256h256v-256h512v256h256v-256h-256v-256h256v-256h-256v256h-512v-256h-256z" />
    <glyph glyph-name="Udieresisgrave" unicode="&#x1db;" 
d="M0 256v1024h256v-1024h768v1024h256v-1024h-256v-256h-768v256h-256zM0 1536v256h256v-256h-256zM256 2048v256h256v-256h256v-256h256v-256h-256v256h-256v256h-256z" />
    <glyph glyph-name="udieresisgrave" unicode="&#x1dc;" horiz-adv-x="1280" 
d="M0 256v768h256v-768h512v768h256v-1024h-768v256h-256zM0 1280v256h256v-256h-256zM256 1792v256h256v-256h256v-256h256v-256h-256v256h-256v256h-256z" />
    <glyph glyph-name="eturn" unicode="&#x1dd;" horiz-adv-x="1280" 
d="M0 0v512h256v256h-256v256h768v-256h256v-512h-256v-256h-768zM256 266h512v492h-256v-256h-256v-236z" />
    <glyph glyph-name="Adieresismacron" unicode="&#x1de;" 
d="M0 0v1024h256v256h768v-256h256v-1024h-256v512h-768v-512h-256zM256 768h768v246h-768v-246zM256 1536v512h768v-512h-256v256h-256v-256h-256z" />
    <glyph glyph-name="adieresismacron" unicode="&#x1df;" horiz-adv-x="1280" 
d="M0 256v512h256v256h512v-256h256v-768h-768v256h-256zM0 1280v512h1024v-512h-256v256h-512v-256h-256zM256 266h512v492h-512v-492z" />
    <glyph glyph-name="Adotmacron" unicode="&#x1e0;" 
d="M0 0v1024h256v256h768v-256h256v-1024h-256v512h-768v-512h-256zM256 768h768v246h-768v-246zM256 2048v256h768v-256h-768zM512 1536v256h256v-256h-256z" />
    <glyph glyph-name="adotmacron" unicode="&#x1e1;" horiz-adv-x="1280" 
d="M0 256v512h256v256h512v-256h256v-768h-768v256h-256zM0 1792v256h1024v-256h-1024zM256 266h512v492h-512v-492zM512 1280v256h256v-256h-256z" />
    <glyph glyph-name="AEmacron" unicode="&#x1e2;" horiz-adv-x="2560" 
d="M0 0v1024h256v256h2048v-256h-1024v-256h768v-256h-768v-256h1024v-256h-1280v512h-768v-512h-256zM266 768h758v252h-758v-252zM1024 1536v256h768v-256h-768z" />
    <glyph glyph-name="aemacron" unicode="&#x1e3;" horiz-adv-x="2048" 
d="M0 256v512h256v256h512v-256h256v256h768v-512h-256v-256h256v-256h-1536v256h-256zM256 266h512v492h-512v-492zM512 1280v256h1024v-256h-1024zM1024 266h256v256h256v236h-512v-492z" />
    <glyph glyph-name="Gbar" unicode="&#x1e4;" 
d="M0 256v768h256v256h512v-256h-512v-768h768v256h-512v256h512v256h256v-1024h-1024v256h-256z" />
    <glyph glyph-name="gbar" unicode="&#x1e5;" horiz-adv-x="1280" 
d="M0 256v512h256v256h512v-256h256v-1280h-768v256h512v256h-512v256h-256zM256 266h512v492h-512v-492z" />
    <glyph glyph-name="Ghacek" unicode="&#x1e6;" 
d="M0 256v768h256v256h1024v-256h-1024v-768h768v256h-512v256h768v-768h-1024v256h-256zM256 1792v256h256v-256h256v256h256v-256h-256v-256h-256v256h-256z" />
    <glyph glyph-name="ghacek" unicode="&#x1e7;" horiz-adv-x="1280" 
d="M0 256v512h256v256h512v-256h256v-1024h-256v-256h-512v256h512v256h-512v256h-256zM0 1536v256h256v-256h512v256h256v-256h-256v-256h-512v256h-256zM256 266h512v492h-512v-492z" />
    <glyph glyph-name="Khacek" unicode="&#x1e8;" 
d="M0 0v1280h256v-512h512v256h256v256h256v-256h-256v-256h-256v-256h256v-256h256v-256h-256v256h-256v256h-512v-512h-256zM256 1792v256h256v-256h256v256h256v-256h-256v-256h-256v256h-256z" />
    <glyph glyph-name="khacek" unicode="&#x1e9;" horiz-adv-x="1280" 
d="M0 0v1280h256v-768h256v256h256v256h256v-256h-256v-256h256v-512h-256v512h-256v-256h-256v-256h-256zM0 1536v256h256v-256h512v256h256v-256h-256v-256h-512v256h-256z" />
    <glyph glyph-name="Oogonek" unicode="&#x1ea;" 
d="M0 256v768h256v256h768v-256h256v-768h-256v-256h-256v-256h256v-256h-256v256h-256v256h-256v256h-256zM256 266h768v748h-768v-748z" />
    <glyph glyph-name="oogonek" unicode="&#x1eb;" horiz-adv-x="1280" 
d="M0 256v512h256v256h512v-256h256v-512h-256v-256h-256v-256h256v-256h-256v256h-256v512h-256zM256 266h512v492h-512v-492z" />
    <glyph glyph-name="Oogonekmacron" unicode="&#x1ec;" 
d="M0 256v768h256v256h768v-256h256v-768h-256v-256h-256v-256h256v-256h-256v256h-256v256h-256v256h-256zM256 266h768v748h-768v-748zM256 1536v256h768v-256h-768z" />
    <glyph glyph-name="oogonekmacron" unicode="&#x1ed;" horiz-adv-x="1280" 
d="M0 256v512h256v256h512v-256h256v-512h-256v-256h-256v-256h256v-256h-256v256h-256v512h-256zM0 1280v256h1024v-256h-1024zM256 266h512v492h-512v-492z" />
    <glyph glyph-name="Yoghhacek" unicode="&#x1ee;" horiz-adv-x="1280" 
d="M0 0v256h768v256h-512v256h256v256h-512v256h1024v-256h-256v-512h256v-256h-256v-256h-768zM256 1792v256h256v-256h256v256h256v-256h-256v-256h-256v256h-256z" />
    <glyph glyph-name="yoghhacek" unicode="&#x1ef;" horiz-adv-x="1280" 
d="M0 0h768v256h-512v256h256v256h-512v256h1024v-256h-256v-512h256v-256h-256v-256h-768v256zM0 1536v256h256v-256h512v256h256v-256h-256v-256h-512v256h-256z" />
    <glyph glyph-name="jhacek" unicode="&#x1f0;" horiz-adv-x="512" 
d="M-256 -256h256v-256h-256v256zM-256 1280v256h256v-256h256v256h256v-256h-256v-256h-256v256h-256zM0 -256v1024h256v-1024h-256z" />
    <glyph glyph-name="uni01F1" unicode="&#x1f1;" horiz-adv-x="3072" 
d="M0 0v1280h1024v-256h256v-768h-256v-256h-1024zM256 256h758v768h-758v-768zM1536 0v256h256v256h256v256h256v256h-768v256h1280v-256h-256v-256h-256v-256h-256v-256h768v-256h-1280z" />
    <glyph glyph-name="uni01F2" unicode="&#x1f2;" horiz-adv-x="2816" 
d="M0 0v1280h1024v-256h256v-768h-256v-256h-1024zM256 256h758v768h-758v-768zM1536 0v256h256v256h256v256h-512v256h1024v-256h-256v-256h-256v-256h512v-256h-1024z" />
    <glyph glyph-name="uni01F3" unicode="&#x1f3;" horiz-adv-x="2560" 
d="M0 256v512h256v256h512v256h256v-1280h-768v256h-256zM266 256h502v512h-502v-512zM1280 0v256h256v256h256v256h-512v256h1024v-256h-256v-256h-256v-256h512v-256h-1024z" />
    <glyph glyph-name="uni01F4" unicode="&#x1f4;" 
d="M0 256v768h256v256h1024v-256h-1024v-768h768v256h-512v256h768v-768h-1024v256h-256zM512 1536v256h256v256h256v-256h-256v-256h-256z" />
    <glyph glyph-name="uni01F5" unicode="&#x1f5;" horiz-adv-x="1280" 
d="M0 256v512h256v256h512v-256h256v-1024h-256v-256h-512v256h512v256h-512v256h-256zM256 266h512v492h-512v-492zM256 1280v256h256v256h256v-256h-256v-256h-256z" />
    <glyph glyph-name="uni01F6" unicode="&#x1f6;" horiz-adv-x="2304" 
d="M0 0v1280h256v-512h768v512h256v-1024h512v768h256v-768h-256v-256h-512v256h-256v256h-768v-512h-256z" />
    <glyph glyph-name="uni01F7" unicode="&#x1f7;" horiz-adv-x="1280" 
d="M0 -512v1792h768v-256h256v-768h-256v-256h-256v-256h-256v-256h-256zM256 0h256v256h256v768h-512v-1024z" />
    <glyph glyph-name="uni01F8" unicode="&#x1f8;" 
d="M0 0v1280h256v-256h256v-256h256v-256h256v768h256v-1280h-256v256h-256v256h-256v256h-256v-768h-256zM256 1792v256h256v-256h256v-256h-256v256h-256z" />
    <glyph glyph-name="uni01F9" unicode="&#x1f9;" horiz-adv-x="1280" 
d="M0 0v1024h768v-256h256v-768h-256v768h-512v-768h-256zM256 1536v256h256v-256h256v-256h-256v256h-256z" />
    <glyph glyph-name="Aringacute" unicode="&#x1fa;" 
d="M0 0v1024h256v256h256v256h-256v256h256v256h256v256h256v-256h-256v-256h256v-256h-256v-256h256v-256h256v-1024h-256v512h-768v-512h-256zM256 768h768v246h-768v-246zM512 1546h256v236h-256v-236z" />
    <glyph glyph-name="aringacute" unicode="&#x1fb;" horiz-adv-x="1280" 
d="M0 256v512h256v256h-256v256h256v512h256v256h256v-256h-256v-256h256v-256h256v-256h-256v-256h256v-768h-768v256h-256zM256 266h512v492h-512v-492zM256 1034h512v236h-512v-236z" />
    <glyph glyph-name="AEacute" unicode="&#x1fc;" horiz-adv-x="2560" 
d="M0 0v1024h256v256h2048v-256h-1024v-256h768v-256h-768v-256h1024v-256h-1280v512h-768v-512h-256zM266 768h758v252h-758v-252zM1024 1536v256h256v256h256v-256h-256v-256h-256z" />
    <glyph glyph-name="aeacute" unicode="&#x1fd;" horiz-adv-x="2048" 
d="M0 256v512h256v256h512v-256h256v256h768v-512h-256v-256h256v-256h-1536v256h-256zM256 266h512v492h-512v-492zM768 1280v256h256v256h256v-256h-256v-256h-256zM1024 266h256v256h256v236h-512v-492z" />
    <glyph glyph-name="Oslashacute" unicode="&#x1fe;" 
d="M0 256v768h256v256h768v-256h256v-768h-256v-256h-768v256h-256zM256 512h256v256h256v246h-512v-502zM512 1536v256h256v256h256v-256h-256v-256h-256zM522 256h492v512h-236v-256h-256v-256z" />
    <glyph glyph-name="oslashacute" unicode="&#x1ff;" horiz-adv-x="1280" 
d="M0 256v512h256v256h512v-256h256v-512h-256v-256h-512v256h-256zM256 512h256v-246h256v246h-256v246h-256v-246zM256 1280v256h256v256h256v-256h-256v-256h-256z" />
    <glyph glyph-name="circumflex" unicode="&#x2c6;" horiz-adv-x="1024" 
d="M-6 768v256h256v256h256v-256h256v-256h-256v256h-256v-256h-256z" />
    <glyph glyph-name="caron" unicode="&#x2c7;" horiz-adv-x="1024" 
d="M0 1024v256h256v-256h256v256h256v-256h-256v-256h-256v256h-256z" />
    <glyph glyph-name="uni02C9" unicode="&#x2c9;" horiz-adv-x="1024" 
d="M0 1024v256h768v-256h-768z" />
    <glyph glyph-name="breve" unicode="&#x2d8;" horiz-adv-x="1024" 
d="M0 1024v256h256v-256h256v256h256v-256h-256v-256h-256v256h-256z" />
    <glyph glyph-name="dotaccent" unicode="&#x2d9;" horiz-adv-x="512" 
d="M0 512v256h256v-256h-256z" />
    <glyph glyph-name="ring" unicode="&#x2da;" horiz-adv-x="1024" 
d="M0 512v256h256v256h256v-256h256v-256h-256v-256h-256v256h-256zM256 522h256v236h-256v-236z" />
    <glyph glyph-name="ogonek" unicode="&#x2db;" horiz-adv-x="768" 
d="M0 0h256v256h256v-256h-256v-256h256v-256h-256v256h-256v256z" />
    <glyph glyph-name="tilde" unicode="&#x2dc;" horiz-adv-x="1280" 
d="M0 512v256h256v256h256v-256h256v256h256v-256h-256v-256h-256v256h-256v-256h-256z" />
    <glyph glyph-name="hungarumlaut" unicode="&#x2dd;" horiz-adv-x="1024" 
d="M0 768v512h256v-512h-256zM512 768v512h256v-512h-256z" />
    <glyph glyph-name="iotasub" unicode="&#x37a;" horiz-adv-x="768" 
d="M0 0h256v-256h-256v256zM256 -256h256v-256h-256v256z" />
    <glyph glyph-name="tonos" unicode="&#x384;" horiz-adv-x="768" 
d="M0 768v256h256v256h256v-256h-256v-256h-256z" />
    <glyph glyph-name="diaeresistonos" unicode="&#x385;" horiz-adv-x="1024" 
d="M0 768v256h256v-256h-256zM256 1024v256h256v256h256v-256h-256v-256h-256zM512 768v256h256v-256h-256z" />
    <glyph glyph-name="Alphatonos" unicode="&#x386;" horiz-adv-x="2048" 
d="M0 768v256h256v256h256v-256h-256v-256h-256zM512 0v1024h256v256h768v-256h256v-1024h-256v512h-768v-512h-256zM768 768h768v246h-768v-246z" />
    <glyph glyph-name="anoteleia" unicode="&#x387;" horiz-adv-x="512" 
d="M0 512v256h256v-256h-256z" />
    <glyph glyph-name="Epsilontonos" unicode="&#x388;" horiz-adv-x="2048" 
d="M0 768v256h256v256h1536v-256h-1024v-256h768v-256h-768v-256h1024v-256h-1280v1024h-256v-256h-256z" />
    <glyph glyph-name="Etatonos" unicode="&#x389;" horiz-adv-x="2048" 
d="M0 768v256h256v256h512v-512h768v512h256v-1280h-256v512h-768v-512h-256v1024h-256v-256h-256z" />
    <glyph glyph-name="Iotatonos" unicode="&#x38a;" horiz-adv-x="1024" 
d="M0 768v256h256v256h512v-1280h-256v1024h-256v-256h-256z" />
    <glyph glyph-name="Omicrontonos" unicode="&#x38c;" horiz-adv-x="2048" 
d="M0 768v256h256v256h256v-256h-256v-256h-256zM512 256v768h256v256h768v-256h256v-768h-256v-256h-768v256h-256zM768 266h768v748h-768v-748z" />
    <glyph glyph-name="Upsilontonos" unicode="&#x38e;" horiz-adv-x="2048" 
d="M0 768v256h256v256h512v-256h256v-256h256v256h256v256h256v-256h-256v-256h-256v-768h-256v768h-256v256h-512v-256h-256z" />
    <glyph glyph-name="Omegatonos" unicode="&#x38f;" horiz-adv-x="2048" 
d="M0 768v256h256v256h256v-256h256v-512h256v-512h-512v256h256v256h-256v512h-256v-256h-256zM768 1024v256h768v-256h-768zM1280 0v512h256v512h256v-512h-256v-256h256v-256h-512z" />
    <glyph glyph-name="iotadiaeresistonos" unicode="&#x390;" horiz-adv-x="1024" 
d="M0 768v256h256v256h256v256h256v-256h-256v-256h256v-256h-256v-512h256v-256h-256v256h-256v512h-256zM256 778h256v236h-256v-236z" />
    <glyph glyph-name="Alpha" unicode="&#x391;" horiz-adv-x="1280" 
d="M0 0v1024h256v256h768v-256h256v-1024h-256v512h-768v-512h-256zM256 768h768v246h-768v-246z" />
    <glyph glyph-name="Beta" unicode="&#x392;" 
d="M0 0v1280h1024v-256h256v-256h-256v-256h256v-256h-256v-256h-1024zM256 256h758v256h-758v-256zM256 768h758v256h-758v-256z" />
    <glyph glyph-name="Gamma" unicode="&#x393;" horiz-adv-x="1280" 
d="M0 0v1280h1024v-256h-768v-1024h-256z" />
    <glyph glyph-name="glyph473" unicode="&#x394;" 
d="M0 0v512h256v512h256v256h256v-256h256v-512h256v-512h-1280zM266 256h748v256h-246v502h-256v-502h-246v-256z" />
    <glyph glyph-name="Epsilon" unicode="&#x395;" 
d="M0 0v1280h1280v-256h-1024v-256h768v-256h-768v-256h1024v-256h-1280z" />
    <glyph glyph-name="Zeta" unicode="&#x396;" 
d="M0 0v256h256v256h256v256h256v256h-768v256h1280v-256h-256v-256h-256v-256h-256v-256h768v-256h-1280z" />
    <glyph glyph-name="Eta" unicode="&#x397;" 
d="M0 0v1280h256v-512h768v512h256v-1280h-256v512h-768v-512h-256z" />
    <glyph glyph-name="Theta" unicode="&#x398;" 
d="M0 256v768h256v256h768v-256h256v-768h-256v-256h-768v256h-256zM256 266h768v246h-768v-246zM256 768h768v246h-768v-246z" />
    <glyph glyph-name="Iota" unicode="&#x399;" horiz-adv-x="512" 
d="M0 0v1280h256v-1280h-256z" />
    <glyph glyph-name="Kappa" unicode="&#x39a;" 
d="M0 0v1280h256v-512h512v256h256v256h256v-256h-256v-256h-256v-256h256v-256h256v-256h-256v256h-256v256h-512v-512h-256z" />
    <glyph glyph-name="Lambda" unicode="&#x39b;" 
d="M0 0v512h256v512h256v256h256v-256h256v-512h256v-512h-256v512h-256v512h-256v-512h-256v-512h-256z" />
    <glyph glyph-name="Mu" unicode="&#x39c;" 
d="M0 0v1280h256v-256h256v-256h256v256h256v256h256v-1280h-256v768h-256v-256h-256v256h-256v-768h-256z" />
    <glyph glyph-name="Nu" unicode="&#x39d;" 
d="M0 0v1280h256v-256h256v-256h256v-256h256v768h256v-1280h-256v256h-256v256h-256v256h-256v-768h-256z" />
    <glyph glyph-name="Xi" unicode="&#x39e;" horiz-adv-x="1280" 
d="M0 0v256h1024v-256h-1024zM0 1024v256h1024v-256h-1024zM256 512v256h512v-256h-512z" />
    <glyph glyph-name="Omicron" unicode="&#x39f;" 
d="M0 256v768h256v256h768v-256h256v-768h-256v-256h-768v256h-256zM256 266h768v748h-768v-748z" />
    <glyph glyph-name="Pi" unicode="&#x3a0;" 
d="M0 0v1280h1280v-1280h-256v1024h-768v-1024h-256z" />
    <glyph glyph-name="Rho" unicode="&#x3a1;" 
d="M0 0v1280h1024v-256h256v-256h-256v-256h-768v-512h-256zM256 768h758v256h-758v-256z" />
    <glyph glyph-name="Sigma" unicode="&#x3a3;" 
d="M0 0v256h256v256h256v256h-256v256h-256v256h1280v-512h-256v256h-512v-256h256v-256h-256v-256h512v256h256v-512h-1280z" />
    <glyph glyph-name="Tau" unicode="&#x3a4;" 
d="M0 1024v256h1280v-256h-512v-1024h-256v1024h-512z" />
    <glyph glyph-name="Upsilon" unicode="&#x3a5;" 
d="M0 1024v256h256v-256h256v-256h256v256h256v256h256v-256h-256v-256h-256v-768h-256v768h-256v256h-256z" />
    <glyph glyph-name="Phi" unicode="&#x3a6;" horiz-adv-x="2048" 
d="M0 512v256h256v256h256v256h256v256h256v-256h256v-256h256v-256h256v-256h-256v-256h-256v-256h-256v-256h-256v256h-256v256h-256v256h-256zM266 512h256v-256h246v768h-246v-256h-256v-256zM1024 256h246v256h256v256h-256v256h-246v-768z" />
    <glyph glyph-name="Chi" unicode="&#x3a7;" 
d="M0 0v256h256v256h256v256h-256v256h-256v256h256v-256h256v-256h256v256h256v256h256v-256h-256v-256h-256v-256h256v-256h256v-256h-256v256h-256v256h-256v-256h-256v-256h-256z" />
    <glyph glyph-name="Psi" unicode="&#x3a8;" 
d="M0 768v512h256v-512h-256zM256 512v256h256v512h256v-512h256v512h256v-512h-256v-256h-256v-512h-256v512h-256z" />
    <glyph glyph-name="uni03A9" unicode="&#x3a9;" 
d="M0 0v256h256v256h-256v512h256v-512h256v-512h-512zM256 1024v256h768v-256h-768zM768 0v512h256v512h256v-512h-256v-256h256v-256h-512z" />
    <glyph glyph-name="Iotadiaeresis" unicode="&#x3aa;" horiz-adv-x="512" 
d="M-256 1536v256h256v-256h-256zM0 0v1280h256v-1280h-256zM256 1536v256h256v-256h-256z" />
    <glyph glyph-name="Upsilondiaeresis" unicode="&#x3ab;" 
d="M0 1024v256h256v-256h256v-256h256v256h256v256h256v-256h-256v-256h-256v-768h-256v768h-256v256h-256zM256 1536v256h256v-256h-256zM768 1536v256h256v-256h-256z" />
    <glyph glyph-name="alphatonos" unicode="&#x3ac;" horiz-adv-x="1280" 
d="M0 256v512h256v256h512v-256h256v-768h-768v256h-256zM256 266h512v492h-512v-492zM256 1280v512h256v-512h-256z" />
    <glyph glyph-name="epsilontonos" unicode="&#x3ad;" horiz-adv-x="1280" 
d="M0 0h256v-256h512v256h256v256h-256v-256h-512v256h256v256h-256v256h512v-256h256v256h-256v256h-512v-256h-256v-256h256v-256h-256v-256zM256 1280v512h256v-512h-256z" />
    <glyph glyph-name="etatonos" unicode="&#x3ae;" horiz-adv-x="1280" 
d="M0 0v1024h768v-256h256v-1024h-256v1024h-512v-768h-256zM256 1280v512h256v-512h-256z" />
    <glyph glyph-name="iotatonos" unicode="&#x3af;" horiz-adv-x="768" 
d="M0 256v768h256v-768h-256zM0 1280v512h256v-512h-256zM256 0v256h256v-256h-256z" />
    <glyph glyph-name="upsilondiaeresistonos" unicode="&#x3b0;" horiz-adv-x="1280" 
d="M0 256v768h256v-768h512v768h256v-1024h-768v256h-256zM0 1280v256h256v-256h-256zM256 1536v256h256v256h256v-256h-256v-256h-256zM512 1280v256h256v-256h-256z" />
    <glyph glyph-name="alpha" unicode="&#x3b1;" horiz-adv-x="1280" 
d="M0 256v512h256v256h512v-256h256v-768h-768v256h-256zM256 266h512v492h-512v-492z" />
    <glyph glyph-name="beta" unicode="&#x3b2;" horiz-adv-x="1280" 
d="M0 0v1024h256v-1024h-256zM256 1024v256h512v-256h-512zM512 0v256h256v256h-256v256h256v256h256v-256h-256v-256h256v-256h-256v-256h-256z" />
    <glyph glyph-name="gamma" unicode="&#x3b3;" horiz-adv-x="1280" 
d="M0 256v768h256v-768h512v768h256v-1280h-256v-256h-512v256h512v256h-512v256h-256z" />
    <glyph glyph-name="delta" unicode="&#x3b4;" horiz-adv-x="1280" 
d="M0 256v256h256v512h-256v256h1024v-256h-512v-256h256v-256h256v-256h-256v-256h-512v256h-256zM256 266h512v236h-512v-236z" />
    <glyph glyph-name="epsilon" unicode="&#x3b5;" horiz-adv-x="1280" 
d="M0 0v256h256v256h-256v256h256v256h512v-256h256v-256h-256v256h-512v-256h256v-256h-256v-256h512v256h256v-256h-256v-256h-512v256h-256z" />
    <glyph glyph-name="zeta" unicode="&#x3b6;" horiz-adv-x="1024" 
d="M0 0v768h256v256h-256v256h768v-256h-256v-256h-256v-768h-256zM0 -256h256v256h256v-256h-256v-256h-256v256z" />
    <glyph glyph-name="eta" unicode="&#x3b7;" horiz-adv-x="1280" 
d="M0 0v1024h768v-256h256v-1024h-256v1024h-512v-768h-256z" />
    <glyph glyph-name="theta" unicode="&#x3b8;" horiz-adv-x="1280" 
d="M0 256v768h256v256h512v-256h256v-768h-256v-256h-512v256h-256zM256 266h512v246h-512v-246zM256 768h512v246h-512v-246z" />
    <glyph glyph-name="iota" unicode="&#x3b9;" horiz-adv-x="768" 
d="M0 256v768h256v-768h-256zM256 0v256h256v-256h-256z" />
    <glyph glyph-name="kappa" unicode="&#x3ba;" horiz-adv-x="1280" 
d="M0 0v1024h256v-512h256v256h256v256h256v-256h-256v-256h256v-512h-256v512h-256v-256h-256v-256h-256z" />
    <glyph glyph-name="lambda" unicode="&#x3bb;" horiz-adv-x="1280" 
d="M0 0v512h256v256h512v256h-512v256h512v-256h256v-1024h-256v512h-512v-512h-256z" />
    <glyph glyph-name="mu" unicode="&#x3bc;" 
d="M0 -512v1536h256v-768h512v768h256v-768h256v-256h-256v256h-256v-256h-512v-512h-256z" />
    <glyph glyph-name="nu" unicode="&#x3bd;" 
d="M0 768v256h256v-256h256v-512h256v512h256v256h256v-256h-256v-512h-256v-256h-256v256h-256v512h-256z" />
    <glyph glyph-name="xi" unicode="&#x3be;" horiz-adv-x="1024" 
d="M0 0v512h256v512h-256v256h256v256h256v-256h-256v-256h512v-256h-256v-256h-256v-512h256v-256h-256v-256h-256v256h256v256h-256z" />
    <glyph glyph-name="omicron" unicode="&#x3bf;" horiz-adv-x="1280" 
d="M0 256v512h256v256h512v-256h256v-512h-256v-256h-512v256h-256zM256 266h512v492h-512v-492z" />
    <glyph glyph-name="pi" unicode="&#x3c0;" 
d="M0 768v256h1280v-256h-256v-768h-256v768h-256v-768h-256v768h-256z" />
    <glyph glyph-name="rho" unicode="&#x3c1;" horiz-adv-x="1280" 
d="M0 -512v1536h768v-256h256v-512h-256v-256h-512v-512h-256zM256 266h512v492h-512v-492z" />
    <glyph glyph-name="sigmafinal" unicode="&#x3c2;" horiz-adv-x="1280" 
d="M0 512v256h256v256h768v-256h-512v-256h512v-256h-256v-256h-512v256h256v256h-512z" />
    <glyph glyph-name="sigma" unicode="&#x3c3;" 
d="M0 256v512h256v256h1024v-256h-256v-512h-256v-256h-512v256h-256zM256 266h512v492h-512v-492z" />
    <glyph glyph-name="tau" unicode="&#x3c4;" horiz-adv-x="1024" 
d="M0 768v256h768v-256h-256v-512h-256v512h-256zM512 0v256h256v-256h-256z" />
    <glyph glyph-name="upsilon" unicode="&#x3c5;" horiz-adv-x="1280" 
d="M0 0v1024h256v-768h512v512h-256v256h256v-256h256v-512h-256v-256h-768z" />
    <glyph glyph-name="phi" unicode="&#x3c6;" 
d="M0 256v512h256v256h768v-256h256v-512h-256v-256h-256v-512h-256v512h-256v256h-256zM266 256h246v512h-246v-512zM768 256h246v512h-246v-512z" />
    <glyph glyph-name="chi" unicode="&#x3c7;" 
d="M0 0h256v256h256v256h-256v256h-256v256h256v-256h256v-256h256v256h256v256h256v-256h-256v-256h-256v-256h256v-256h256v-256h-256v256h-256v256h-256v-256h-256v-256h-256v256z" />
    <glyph glyph-name="psi" unicode="&#x3c8;" 
d="M0 256v768h256v-768h-256zM256 0v256h256v768h256v-768h256v768h256v-768h-256v-256h-256v-256h-256v256h-256z" />
    <glyph glyph-name="omega" unicode="&#x3c9;" 
d="M0 256v768h256v-768h256v512h256v-512h256v768h256v-768h-256v-256h-256v256h-256v-256h-256v256h-256z" />
    <glyph glyph-name="iotadiaeresis" unicode="&#x3ca;" horiz-adv-x="768" 
d="M-256 1280v256h256v-256h-256zM0 256v768h256v-768h-256zM256 0v256h256v-256h-256zM256 1280v256h256v-256h-256z" />
    <glyph glyph-name="upsilondiaeresis" unicode="&#x3cb;" horiz-adv-x="1280" 
d="M0 0v1024h256v-768h512v512h-256v256h256v-256h256v-512h-256v-256h-768zM0 1280v256h256v-256h-256zM512 1280v256h256v-256h-256z" />
    <glyph glyph-name="omicrontonos" unicode="&#x3cc;" horiz-adv-x="1280" 
d="M0 256v512h256v256h512v-256h256v-512h-256v-256h-512v256h-256zM256 266h512v492h-512v-492zM256 1280v512h256v-512h-256z" />
    <glyph glyph-name="upsilontonos" unicode="&#x3cd;" horiz-adv-x="1280" 
d="M0 0v1024h256v-768h512v512h-256v256h256v-256h256v-512h-256v-256h-768zM256 1280v512h256v-512h-256z" />
    <glyph glyph-name="omegatonos" unicode="&#x3ce;" 
d="M0 256v768h256v-768h256v512h256v-512h256v768h256v-768h-256v-256h-256v256h-256v-256h-256v256h-256zM512 1280v512h256v-512h-256z" />
    <glyph glyph-name="uni0400" unicode="&#x400;" 
d="M0 0v1280h1280v-256h-1024v-256h768v-256h-768v-256h1024v-256h-1280zM256 1792v256h256v-256h256v-256h-256v256h-256z" />
    <glyph glyph-name="Io" unicode="&#x401;" 
d="M0 0v1280h1280v-256h-1024v-256h768v-256h-768v-256h1024v-256h-1280zM256 1538v256h256v-256h-256zM768 1536v256h256v-256h-256z" />
    <glyph glyph-name="Dje" unicode="&#x402;" horiz-adv-x="2048" 
d="M0 1024v256h1280v-256h-512v-256h768v-256h256v-512h-256v-256h-256v256h256v512h-768v-512h-256v1024h-512z" />
    <glyph glyph-name="Gje" unicode="&#x403;" horiz-adv-x="1280" 
d="M0 0v1280h1024v-256h-768v-1024h-256zM256 1536v256h256v256h256v-256h-256v-256h-256z" />
    <glyph glyph-name="Ecyril" unicode="&#x404;" 
d="M0 256v768h256v256h768v-256h256v-256h-256v256h-768v-256h512v-256h-512v-256h768v256h256v-256h-256v-256h-768v256h-256z" />
    <glyph glyph-name="Dze" unicode="&#x405;" 
d="M0 0v256h1024v256h-768v256h-256v256h256v256h1024v-256h-1024v-256h768v-256h256v-256h-256v-256h-1024z" />
    <glyph glyph-name="Icyril" unicode="&#x406;" horiz-adv-x="512" 
d="M0 0v1280h256v-1280h-256z" />
    <glyph glyph-name="Yi" unicode="&#x407;" horiz-adv-x="512" 
d="M-256 1536v256h256v-256h-256zM0 0v1280h256v-1280h-256zM256 1536v256h256v-256h-256z" />
    <glyph glyph-name="Je" unicode="&#x408;" horiz-adv-x="1280" 
d="M0 256v256h256v-256h512v1024h256v-1024h-256v-256h-512v256h-256z" />
    <glyph glyph-name="Lje" unicode="&#x409;" horiz-adv-x="2304" 
d="M0 0v256h256v1024h768v-512h768v-256h256v-256h-256v-256h-1024v1024h-256v-768h-256v-256h-256zM1024 256h758v256h-758v-256z" />
    <glyph glyph-name="Nje" unicode="&#x40a;" horiz-adv-x="2560" 
d="M0 0v1280h256v-512h768v512h256v-512h768v-256h256v-256h-256v-256h-1024v512h-768v-512h-256zM1280 256h758v256h-758v-256z" />
    <glyph glyph-name="Tshe" unicode="&#x40b;" horiz-adv-x="1792" 
d="M0 1024v256h1280v-256h-512v-256h512v-256h256v-512h-256v512h-512v-512h-256v1024h-512z" />
    <glyph glyph-name="Kje" unicode="&#x40c;" 
d="M0 0v1280h256v-512h512v256h256v256h256v-256h-256v-256h-256v-256h256v-256h256v-256h-256v256h-256v256h-512v-512h-256zM512 1280v256h256v256h256v-256h-256v-256h-256z" />
    <glyph glyph-name="uni040D" unicode="&#x40d;" 
d="M0 0v1280h256v-768h256v256h256v256h256v256h256v-1280h-256v768h-256v-256h-256v-256h-256v-256h-256zM256 1536v256h256v-256h256v256h256v-256h-256v-256h-256v256h-256z" />
    <glyph glyph-name="Ucyrilbreve" unicode="&#x40e;" 
d="M0 0v256h512v256h-256v256h-256v512h256v-512h256v-256h256v256h256v512h256v-512h-256v-256h-256v-256h-256v-256h-512zM256 1536v256h256v-256h256v256h256v-256h-256v-256h-256v256h-256z" />
    <glyph glyph-name="Dzhe" unicode="&#x40f;" 
d="M0 0v1280h256v-1024h768v1024h256v-1280h-512v-256h-256v256h-512z" />
    <glyph glyph-name="Acyril" unicode="&#x410;" horiz-adv-x="1280" 
d="M0 0v1024h256v256h768v-256h256v-1024h-256v512h-768v-512h-256zM256 768h768v246h-768v-246z" />
    <glyph glyph-name="Be" unicode="&#x411;" 
d="M0 0v1280h1024v-256h-768v-256h768v-256h256v-256h-256v-256h-1024zM256 256h758v256h-758v-256z" />
    <glyph glyph-name="Ve" unicode="&#x412;" 
d="M0 0v1280h1024v-256h256v-256h-256v-256h256v-256h-256v-256h-1024zM256 256h758v256h-758v-256zM256 768h758v256h-758v-256z" />
    <glyph glyph-name="Ge" unicode="&#x413;" horiz-adv-x="1280" 
d="M0 0v1280h1024v-256h-768v-1024h-256z" />
    <glyph glyph-name="De" unicode="&#x414;" horiz-adv-x="1280" 
d="M-256 0h256v1280h1024v-1280h256v-256h-256v256h-1024v-256h-256v256zM256 256h512v768h-512v-768z" />
    <glyph glyph-name="Ie" unicode="&#x415;" 
d="M0 0v1280h1280v-256h-1024v-256h768v-256h-768v-256h1024v-256h-1280z" />
    <glyph glyph-name="Zhe" unicode="&#x416;" horiz-adv-x="2048" 
d="M0 0v256h256v256h256v256h-256v256h-256v256h256v-256h256v-256h256v512h256v-512h256v256h256v256h256v-256h-256v-256h-256v-256h256v-256h256v-256h-256v256h-256v256h-256v-512h-256v512h-256v-256h-256v-256h-256z" />
    <glyph glyph-name="Ze" unicode="&#x417;" 
d="M0 256v256h256v-256h768v256h-512v256h512v256h-768v-256h-256v256h256v256h768v-256h256v-256h-256v-256h256v-256h-256v-256h-768v256h-256z" />
    <glyph glyph-name="Ii" unicode="&#x418;" 
d="M0 0v1280h256v-768h256v256h256v256h256v256h256v-1280h-256v768h-256v-256h-256v-256h-256v-256h-256z" />
    <glyph glyph-name="Iibreve" unicode="&#x419;" 
d="M0 0v1280h256v-768h256v256h256v256h256v256h256v-1280h-256v768h-256v-256h-256v-256h-256v-256h-256zM256 1536v256h256v-256h256v256h256v-256h-256v-256h-256v256h-256z" />
    <glyph glyph-name="Ka" unicode="&#x41a;" 
d="M0 0v1280h256v-512h512v256h256v256h256v-256h-256v-256h-256v-256h256v-256h256v-256h-256v256h-256v256h-512v-512h-256z" />
    <glyph glyph-name="El" unicode="&#x41b;" 
d="M0 0v256h256v1024h1024v-1280h-256v1024h-512v-768h-256v-256h-256z" />
    <glyph glyph-name="Em" unicode="&#x41c;" 
d="M0 0v1280h256v-256h256v-256h256v256h256v256h256v-1280h-256v768h-256v-256h-256v256h-256v-768h-256z" />
    <glyph glyph-name="En" unicode="&#x41d;" 
d="M0 0v1280h256v-512h768v512h256v-1280h-256v512h-768v-512h-256z" />
    <glyph glyph-name="Ocyril" unicode="&#x41e;" 
d="M0 256v768h256v256h768v-256h256v-768h-256v-256h-768v256h-256zM256 266h768v748h-768v-748z" />
    <glyph glyph-name="Pecyril" unicode="&#x41f;" 
d="M0 0v1280h1280v-1280h-256v1024h-768v-1024h-256z" />
    <glyph glyph-name="Er" unicode="&#x420;" 
d="M0 0v1280h1024v-256h256v-256h-256v-256h-768v-512h-256zM256 768h758v256h-758v-256z" />
    <glyph glyph-name="Es" unicode="&#x421;" 
d="M0 256v768h256v256h1024v-256h-1024v-768h1024v-256h-1024v256h-256z" />
    <glyph glyph-name="Te" unicode="&#x422;" 
d="M0 1024v256h1280v-256h-512v-1024h-256v1024h-512z" />
    <glyph glyph-name="Ucyril" unicode="&#x423;" 
d="M0 0v256h512v256h-256v256h-256v512h256v-512h256v-256h256v256h256v512h256v-512h-256v-256h-256v-256h-256v-256h-512z" />
    <glyph glyph-name="Ef" unicode="&#x424;" horiz-adv-x="2048" 
d="M0 512v256h256v256h256v256h256v256h256v-256h256v-256h256v-256h256v-256h-256v-256h-256v-256h-256v-256h-256v256h-256v256h-256v256h-256zM266 512h256v-256h246v768h-246v-256h-256v-256zM1024 256h246v256h256v256h-256v256h-246v-768z" />
    <glyph glyph-name="Kha" unicode="&#x425;" 
d="M0 0v256h256v256h256v256h-256v256h-256v256h256v-256h256v-256h256v256h256v256h256v-256h-256v-256h-256v-256h256v-256h256v-256h-256v256h-256v256h-256v-256h-256v-256h-256z" />
    <glyph glyph-name="Tse" unicode="&#x426;" 
d="M0 0v1280h256v-1024h768v1024h256v-1280h256v-256h-256v256h-1280z" />
    <glyph glyph-name="Che" unicode="&#x427;" 
d="M0 768v512h256v-512h768v512h256v-1280h-256v512h-768v256h-256z" />
    <glyph glyph-name="Sha" unicode="&#x428;" horiz-adv-x="2048" 
d="M0 0v1280h256v-1024h512v1024h256v-1024h512v1024h256v-1280h-1792z" />
    <glyph glyph-name="Shcha" unicode="&#x429;" horiz-adv-x="2048" 
d="M0 0v1280h256v-1024h512v1024h256v-1024h512v1024h256v-1280h256v-256h-256v256h-1792z" />
    <glyph glyph-name="Hard" unicode="&#x42a;" horiz-adv-x="2048" 
d="M0 1024v256h768v-512h768v-256h256v-256h-256v-256h-1024v1024h-512zM768 256h758v256h-758v-256z" />
    <glyph glyph-name="Yeri" unicode="&#x42b;" horiz-adv-x="2048" 
d="M0 0v1280h256v-512h768v-256h256v-256h-256v-256h-1024zM256 256h758v256h-758v-256zM1536 0v1280h256v-1280h-256z" />
    <glyph glyph-name="Soft" unicode="&#x42c;" 
d="M0 0v1280h256v-512h768v-256h256v-256h-256v-256h-1024zM256 256h758v256h-758v-256z" />
    <glyph glyph-name="Ecyrilrev" unicode="&#x42d;" 
d="M0 256v256h256v-256h768v256h-512v256h512v256h-768v-256h-256v256h256v256h768v-256h256v-768h-256v-256h-768v256h-256z" />
    <glyph glyph-name="Iu" unicode="&#x42e;" horiz-adv-x="2048" 
d="M0 0v1280h256v-512h256v256h256v256h768v-256h256v-768h-256v-256h-768v256h-256v256h-256v-512h-256zM778 256h738v768h-738v-768z" />
    <glyph glyph-name="Ia" unicode="&#x42f;" 
d="M0 0v256h256v512h-256v256h256v256h1024v-1280h-256v512h-512v-256h-256v-256h-256zM266 768h758v256h-758v-256z" />
    <glyph glyph-name="acyril" unicode="&#x430;" horiz-adv-x="1280" 
d="M0 256v256h256v256h-256v256h768v-256h256v-512h-256v-256h-512v256h-256zM266 256h502v256h-502v-256z" />
    <glyph glyph-name="be" unicode="&#x431;" horiz-adv-x="1280" 
d="M0 256v768h256v-256h512l256 -256v-256h-256v-256h-512v256h-256zM256 266h512v236h-512v-236zM256 1024v256h512v-256h-512z" />
    <glyph glyph-name="ve" unicode="&#x432;" horiz-adv-x="1280" 
d="M0 0v1280h768v-256h256v-256h-256v-256h256v-256h-256v-256h-768zM256 256h502v256h-502v-256zM256 768h502v256h-502v-256z" />
    <glyph glyph-name="ge" unicode="&#x433;" horiz-adv-x="1280" 
d="M0 0v1024h1024v-256h-768v-768h-256z" />
    <glyph glyph-name="de" unicode="&#x434;" horiz-adv-x="1280" 
d="M-256 0h256v1024h1024v-1024h256v-256h-256v256h-1024v-256h-256v256zM256 256h512v512h-512v-512z" />
    <glyph glyph-name="ie" unicode="&#x435;" horiz-adv-x="1280" 
d="M0 256v512h256v256h768v-512h-256v-256h256v-256h-768v256h-256zM256 266h256v256h256v236h-512v-492z" />
    <glyph glyph-name="zhe" unicode="&#x436;" 
d="M0 0v256h256v512h-256v256h256v-256h256v256h256v-256h256v256h256v-256h-256v-512h256v-256h-256v256h-256v-256h-256v256h-256v-256h-256z" />
    <glyph glyph-name="ze" unicode="&#x437;" horiz-adv-x="1280" 
d="M0 256v256h256v-256h512v256h-256v256h256v256h-512v-256h-256v256h256v256h512v-256h256v-256h-256v-256h256v-256h-256v-256h-512v256h-256z" />
    <glyph glyph-name="ii" unicode="&#x438;" horiz-adv-x="1280" 
d="M0 0v1024h256v-512h256v256h256v256h256v-1024h-256v512h-256v-256h-256v-256h-256z" />
    <glyph glyph-name="iibreve" unicode="&#x439;" horiz-adv-x="1280" 
d="M0 0v1024h256v-512h256v256h256v256h256v-1024h-256v512h-256v-256h-256v-256h-256zM0 1536v256h256v-256h512v256h256v-256h-256v-256h-512v256h-256z" />
    <glyph glyph-name="ka" unicode="&#x43a;" horiz-adv-x="1280" 
d="M0 0v1024h256v-512h256v256h256v256h256v-256h-256v-256h256v-512h-256v512h-256v-256h-256v-256h-256z" />
    <glyph glyph-name="el" unicode="&#x43b;" horiz-adv-x="1280" 
d="M0 0v256h256v768h768v-1024h-256v768h-256v-512h-256v-256h-256z" />
    <glyph glyph-name="em" unicode="&#x43c;" 
d="M0 0v1024h256v-256h256v-256h256v256h256v256h256v-1024h-256v512h-256v-256h-256v256h-256v-512h-256z" />
    <glyph glyph-name="en" unicode="&#x43d;" horiz-adv-x="1280" 
d="M0 0v1024h256v-256h512v256h256v-1024h-256v512h-512v-512h-256z" />
    <glyph glyph-name="ocyril" unicode="&#x43e;" horiz-adv-x="1280" 
d="M0 256v512h256v256h512v-256h256v-512h-256v-256h-512v256h-256zM256 266h512v492h-512v-492z" />
    <glyph glyph-name="pecyril" unicode="&#x43f;" horiz-adv-x="1280" 
d="M0 0v1024h1024v-1024h-256v768h-512v-768h-256z" />
    <glyph glyph-name="er" unicode="&#x440;" horiz-adv-x="1280" 
d="M0 -256v1280h768v-256h256v-512h-256v-256h-512v-256h-256zM256 266h512v492h-512v-492z" />
    <glyph glyph-name="es" unicode="&#x441;" horiz-adv-x="1280" 
d="M0 256v512h256v256h768v-256h-768v-512h768v-256h-768v256h-256z" />
    <glyph glyph-name="te" unicode="&#x442;" 
d="M0 768v256h1280v-256h-512v-768h-256v768h-512z" />
    <glyph glyph-name="ucyril" unicode="&#x443;" horiz-adv-x="1280" 
d="M0 0h512v256h-256v256h-256v512h256v-512h512v512h256v-768h-256v-256h-256v-256h-512v256z" />
    <glyph glyph-name="ef" unicode="&#x444;" 
d="M0 512v256h256v256h256v256h256v-256h256v-256h256v-256h-256v-256h-256v-256h-256v256h-256v256h-256zM266 512h246v256h-246v-256zM768 512h246v256h-246v-256z" />
    <glyph glyph-name="kha" unicode="&#x445;" horiz-adv-x="1280" 
d="M0 0v256h256v512h-256v256h256v-256h512v256h256v-256h-256v-512h256v-256h-256v256h-512v-256h-256z" />
    <glyph glyph-name="tse" unicode="&#x446;" horiz-adv-x="1280" 
d="M0 0v1024h256v-768h512v768h256v-1024h256v-256h-256v256h-1024z" />
    <glyph glyph-name="che" unicode="&#x447;" horiz-adv-x="1280" 
d="M0 512v512h256v-512h512v512h256v-1024h-256v256h-512v256h-256z" />
    <glyph glyph-name="sha" unicode="&#x448;" 
d="M0 0v1024h256v-768h256v768h256v-768h256v768h256v-1024h-1280z" />
    <glyph glyph-name="shcha" unicode="&#x449;" 
d="M0 0v1024h256v-768h256v768h256v-768h256v768h256v-1024h256v-256h-256v256h-1280z" />
    <glyph glyph-name="hard" unicode="&#x44a;" 
d="M0 768v256h512v-256h512v-256h256v-256h-256v-256h-768v768h-256zM512 256h502v256h-502v-256z" />
    <glyph glyph-name="yeri" unicode="&#x44b;" horiz-adv-x="1792" 
d="M0 0v1024h256v-256h512v-256h256v-256h-256v-256h-768zM256 256h502v256h-502v-256zM1280 0v1024h256v-1024h-256z" />
    <glyph glyph-name="soft" unicode="&#x44c;" horiz-adv-x="1280" 
d="M0 0v1024h256v-256h512v-256h256v-256h-256v-256h-768zM256 256h502v256h-502v-256z" />
    <glyph glyph-name="ecyrilrev" unicode="&#x44d;" horiz-adv-x="1280" 
d="M0 256v256h256v-256h512v256h-256v256h256v256h-512v-256h-256v256h256v256h512v-256h256v-768h-256v-256h-512v256h-256z" />
    <glyph glyph-name="iu" unicode="&#x44e;" 
d="M0 0v1024h256v-256h256v256h512v-256h256v-512h-256v-256h-512v256h-256v-256h-256zM522 256h482v512h-482v-512z" />
    <glyph glyph-name="ia" unicode="&#x44f;" horiz-adv-x="1280" 
d="M0 0v256h256v256h-256v256h256v256h768v-1024h-256v256h-512v-256h-256zM266 512h502v256h-502v-256z" />
    <glyph glyph-name="uni0450" unicode="&#x450;" 
d="M0 256v512h256v256h768v-512h-256v-256h256v-256h-768v256h-256zM256 266h256v256h256v236h-512v-492zM256 1536v256h256v-256h256v-256h-256v256h-256z" />
    <glyph glyph-name="io" unicode="&#x451;" horiz-adv-x="1280" 
d="M0 256v512h256v256h768v-512h-256v-256h256v-256h-768v256h-256zM0 1282v256h256v-256h-256zM256 266h256v256h256v236h-512v-492zM768 1280v256h256v-256h-256z" />
    <glyph glyph-name="dje" unicode="&#x452;" 
d="M0 1024v256h1024v-256h-512v-256h512v-256h256v-512h-256v-256h-256v256h256v512h-512v-512h-256v1024h-256z" />
    <glyph glyph-name="gje" unicode="&#x453;" horiz-adv-x="1280" 
d="M0 0v1024h1024v-256h-768v-768h-256zM256 1280v256h256v256h256v-256h-256v-256h-256z" />
    <glyph glyph-name="ecyril" unicode="&#x454;" horiz-adv-x="1280" 
d="M0 256v768h256v256h512v-256h256v-256h-256v256h-512v-256h256v-256h-256v-256h512v256h256v-256h-256v-256h-512v256h-256z" />
    <glyph glyph-name="dze" unicode="&#x455;" horiz-adv-x="1280" 
d="M0 0v256h512v256h-512v256h256v256h768v-256h-512v-256h512v-256h-256v-256h-768z" />
    <glyph glyph-name="icyril" unicode="&#x456;" horiz-adv-x="512" 
d="M0 0v768h256v-768h-256zM0 1024v256h256v-256h-256z" />
    <glyph glyph-name="yi" unicode="&#x457;" horiz-adv-x="512" 
d="M-256 1024v256h256v-256h-256zM0 0v768h256v-768h-256zM256 1024v256h256v-256h-256z" />
    <glyph glyph-name="je" unicode="&#x458;" horiz-adv-x="512" 
d="M-256 0h256v-256h-256v256zM0 0v768h256v-768h-256zM0 1024v256h256v-256h-256z" />
    <glyph glyph-name="lje" unicode="&#x459;" horiz-adv-x="2048" 
d="M0 0v256h256v768h768v-256h512v-256h256v-256h-256v-256h-768v768h-256v-512h-256v-256h-256zM1024 256h502v256h-502v-256z" />
    <glyph glyph-name="nje" unicode="&#x45a;" horiz-adv-x="2048" 
d="M0 0v1024h256v-256h512v256h256v-256h512v-256h256v-256h-256v-256h-768v512h-512v-512h-256zM1024 256h502v256h-502v-256z" />
    <glyph glyph-name="tshe" unicode="&#x45b;" 
d="M0 1024v256h1024v-256h-512v-256h512v-256h256v-512h-256v512h-512v-512h-256v1024h-256z" />
    <glyph glyph-name="kje" unicode="&#x45c;" horiz-adv-x="1280" 
d="M0 0v1280h256v-768h256v256h256v256h256v-256h-256v-256h256v-512h-256v512h-256v-256h-256v-256h-256zM512 1280v256h256v256h256v-256h-256v-256h-256z" />
    <glyph glyph-name="uni045D" unicode="&#x45d;" horiz-adv-x="1280" 
d="M0 0v1024h256v-512h256v256h256v256h256v-1024h-256v512h-256v-256h-256v-256h-256zM0 1536v256h256v-256h512v256h256v-256h-256v-256h-512v256h-256z" />
    <glyph glyph-name="ucyrilbreve" unicode="&#x45e;" horiz-adv-x="1280" 
d="M0 0h512v256h-256v256h-256v512h256v-512h512v512h256v-768h-256v-256h-256v-256h-512v256zM0 1536v256h256v-256h512v256h256v-256h-256v-256h-512v256h-256z" />
    <glyph glyph-name="dzhe" unicode="&#x45f;" 
d="M0 0v1024h256v-768h768v768h256v-1024h-512v-256h-256v256h-512z" />
    <glyph glyph-name="uni0460" unicode="&#x460;" horiz-adv-x="2048" 
d="M0 256v768h256v256h256v-256h256v-256h-256v256h-256v-768h512v256h256v-256h512v768h-256v-256h-256v256h256v256h256v-256h256v-768h-256v-256h-512v256h-256v-256h-512v256h-256z" />
    <glyph glyph-name="uni0461" unicode="&#x461;" horiz-adv-x="2048" 
d="M0 256v768h256v-768h512v768h256v-768h512v768h256v-768h-256v-256h-512v256h-256v-256h-512v256h-256z" />
    <glyph glyph-name="Yat" unicode="&#x462;" horiz-adv-x="2048" 
d="M0 1024v256h1280v-256h-512v-256h768v-256h256v-256h-256v-256h-1024v1024h-512zM768 256h758v256h-758v-256z" />
    <glyph glyph-name="yat" unicode="&#x463;" horiz-adv-x="1792" 
d="M0 1024v256h1280v-256h-512v-256h512v-256h256v-256h-256v-256h-768v1024h-512zM768 256h502v256h-502v-256z" />
    <glyph glyph-name="uni0464" unicode="&#x464;" horiz-adv-x="2048" 
d="M0 0v1280h256v-512h256v256h256v256h768v-256h256v-256h-256v256h-768v-256h512v-256h-512v-256h768v256h256v-256h-256v-256h-768v256h-256v256h-256v-512h-256z" />
    <glyph glyph-name="uni0465" unicode="&#x465;" horiz-adv-x="2048" 
d="M0 0v1280h256v-512h256v256h256v256h512v-256h256v-256h-256v256h-512v-256h256v-256h-256v-256h512v256h256v-256h-256v-256h-512v256h-256v256h-256v-512h-256z" />
    <glyph glyph-name="uni0466" unicode="&#x466;" horiz-adv-x="2560" 
d="M0 0v256h256v256h256v256h256v256h256v256h256v-256h256v-256h256v-256h-512v-512h-256v512h-512v-256h-256v-256h-256zM1024 520h256v494h-256v-494zM1792 256v256h256v-256h256v-256h-256v256h-256z" />
    <glyph glyph-name="uni0467" unicode="&#x467;" horiz-adv-x="2048" 
d="M0 0v256h256v256h256v256h256v256h256v-256h256v-256h256v-256h256v-256h-256v256h-256v256h-256v-512h-256v512h-256v-256h-256v-256h-256zM768 522h256v236h-256v-236z" />
    <glyph glyph-name="uni0468" unicode="&#x468;" horiz-adv-x="3072" 
d="M0 0v1280h256v-512h1024v256h256v256h256v-256h256v-256h256v-256h-512v-512h-256v512h-512v-256h-256v-256h-256v256h256v256h-512v-512h-256zM1536 520h256v494h-256v-494zM2304 256v256h256v-256h256v-256h-256v256h-256z" />
    <glyph glyph-name="uni0469" unicode="&#x469;" horiz-adv-x="2560" 
d="M0 0v1024h256v-256h1024v256h256v-256h256v-256h256v-256h256v-256h-256v256h-256v256h-256v-512h-256v512h-256v-256h-256v-256h-256v256h256v256h-512v-512h-256zM1280 522h256v236h-256v-236z" />
    <glyph glyph-name="Yusbig" unicode="&#x46a;" horiz-adv-x="2048" 
d="M0 0v256h256v-256h-256zM256 256v256h512v256h-256v256h-256v256h1280v-256h-256v-256h-256v-256h512v-256h256v-256h-256v256h-512v-256h-256v256h-512zM768 776h256v248h-256v-248z" />
    <glyph glyph-name="yusbig" unicode="&#x46b;" 
d="M0 0v256h256v512h-256v256h1280v-256h-256v-512h256v-256h-256v256h-256v-256h-256v256h-256v-256h-256zM512 512h256v256h-256v-256z" />
    <glyph glyph-name="uni046C" unicode="&#x46c;" horiz-adv-x="2560" 
d="M0 0v1280h256v-512h768v256h-256v256h1280v-256h-256v-256h-256v-256h512v-256h256v-256h-256v256h-512v-256h-256v256h-512v-256h-256v256h256v256h-512v-512h-256zM1280 776h256v248h-256v-248z" />
    <glyph glyph-name="uni046D" unicode="&#x46d;" horiz-adv-x="2048" 
d="M0 0v1024h256v-512l512 -2v258h-256v256h1280v-256h-256v-512h256v-256h-256v256h-256v-256h-256v256h-256v-256h-256v256h-256v-256h-256zM1024 512h256v256h-256v-256z" />
    <glyph glyph-name="uni046E" unicode="&#x46e;" 
d="M0 0h256v256h768v256h-512v256h512v256h-768v-256h-256v256h256v256h768v-256h256v-256h-256v-256h256v-256h-256v-256h-768v-256h768v-256h-768v256h-256v256zM256 1792v256h256v-256h256v256h256v-256h-256v-256h-256v256h-256z" />
    <glyph glyph-name="uni046F" unicode="&#x46f;" horiz-adv-x="1280" 
d="M0 0h256v256h512v256h-256v256h256v256h-512v-256h-256v256h256v256h512v-256h256v-256h-256v-256h256v-256h-256v-256h-512v-256h512v-256h-512v256h-256v256zM0 1792v256h256v-256h512v256h256v-256h-256v-256h-512v256h-256z" />
    <glyph glyph-name="Psicyril" unicode="&#x470;" 
d="M0 768v512h256v-512h-256zM256 512v256h256v512h256v-512h256v512h256v-512h-256v-256h-256v-512h-256v512h-256z" />
    <glyph glyph-name="psicyril" unicode="&#x471;" 
d="M0 256v768h256v-768h-256zM256 0v256h256v768h256v-768h256v768h256v-768h-256v-256h-256v-256h-256v256h-256z" />
    <glyph glyph-name="Fita" unicode="&#x472;" 
d="M0 256v768h256v256h768v-256h256v-768h-256v-256h-768v256h-256zM256 266h768v246h-768v-246zM256 768h768v246h-768v-246z" />
    <glyph glyph-name="fita" unicode="&#x473;" horiz-adv-x="1280" 
d="M0 256v512h256v256h512v-256h256v-512h-256v-256h-512v256h-256zM256 512h256v-246h256v246h-256v246h-256v-246z" />
    <glyph glyph-name="Izhitsa" unicode="&#x474;" 
d="M0 512v768h256v-768h256v-256h256v768h256v256h256v-256h-256v-768h-256v-256h-256v256h-256v256h-256z" />
    <glyph glyph-name="izhitsa" unicode="&#x475;" 
d="M0 512v512h256v-512h256v-256h256v512h256v256h256v-256h-256v-512h-256v-256h-256v256h-256v256h-256z" />
    <glyph glyph-name="Izhitsagravedbl" unicode="&#x476;" 
d="M0 512v768h256v-768h256v-256h256v768h256v256h256v-256h-256v-768h-256v-256h-256v256h-256v256h-256zM256 1536v256h256v-256h256v-256h-256v256h-256z" />
    <glyph glyph-name="izhitsagravedbl" unicode="&#x477;" 
d="M0 512v512h256v-512h256v-256h256v512h256v256h256v-256h-256v-512h-256v-256h-256v256h-256v256h-256zM256 1280v256h256v-256h256v-256h-256v256h-256z" />
    <glyph glyph-name="Digraphuk" unicode="&#x478;" horiz-adv-x="2816" 
d="M0 256v768h256v256h768v-256h512v-512h256v-256h256v512h256v256h256v-256h-256v-512h-256v-256h-256v-256h-256v256h256v256h-256v256h-256v-256h-256v-256h-768v256h-256zM256 266h768v748h-768v-748z" />
    <glyph glyph-name="digraphuk" unicode="&#x479;" horiz-adv-x="2560" 
d="M0 256v512h256v256h512v-256h512v-256h256v-256h256v256h256v256h256v-256h-256v-256h-256v-256h-256v-256h-256v256h256v256h-256v256h-256v-256h-256v-256h-512v256h-256zM256 266h512v492h-512v-492z" />
    <glyph glyph-name="Omegaround" unicode="&#x47a;" horiz-adv-x="2048" 
d="M0 256v768h256v256h512v256h256v-256h512v-256h256v-768h-256v-256h-512v-256h-256v256h-512v256h-256zM256 266h1280v748h-1280v-748z" />
    <glyph glyph-name="omegaround" unicode="&#x47b;" horiz-adv-x="2048" 
d="M0 256v512h256v256h512v256h256v-256h512v-256h256v-512h-256v-256h-512v-256h-256v256h-512v256h-256zM256 266h1280v492h-1280v-492z" />
    <glyph glyph-name="Omegatitlo" unicode="&#x47c;" horiz-adv-x="2048" 
d="M0 256v768h256v256h256v256h256v256h256v-256h-256v-256h-256v-256h256v-256h-256v256h-256v-768h512v256h256v-256h512v768h-256v-256h-256v256h256v256h256v-256h256v-768h-256v-256h-512v256h-256v-256h-512v256h-256z" />
    <glyph glyph-name="omegatitlo" unicode="&#x47d;" horiz-adv-x="2048" 
d="M0 256v512h256v256h256v256h256v256h256v-256h-256v-256h-256v-256h256v-256h-256v256h-256v-512h1280v512h-256v-256h-256v256h256v256h256v-256h256v-512h-256v-256h-1280v256h-256z" />
    <glyph glyph-name="OT" unicode="&#x47e;" horiz-adv-x="2048" 
d="M0 256v768h256v256h256v-256h256v-256h-256v256h-256v-768h512v256h256v-256h512v768h-256v-256h-256v256h256v256h256v-256h256v-768h-256v-256h-512v256h-256v-256h-512v256h-256zM256 1536v256h1280v-256h-1280z" />
    <glyph glyph-name="ot" unicode="&#x47f;" horiz-adv-x="2048" 
d="M0 256v768h256v-768h512v768h256v-768h512v768h256v-768h-256v-256h-512v256h-256v-256h-512v256h-256zM256 1280v256h1280v-256h-1280z" />
    <glyph glyph-name="uni2000" unicode="&#x2000;" horiz-adv-x="1152" 
 />
    <glyph glyph-name="uni2001" unicode="&#x2001;" horiz-adv-x="2304" 
 />
    <glyph glyph-name="uni2002" unicode="&#x2002;" horiz-adv-x="1152" 
 />
    <glyph glyph-name="uni2003" unicode="&#x2003;" horiz-adv-x="2304" 
 />
    <glyph glyph-name="uni2004" unicode="&#x2004;" horiz-adv-x="768" 
 />
    <glyph glyph-name="uni2005" unicode="&#x2005;" horiz-adv-x="576" 
 />
    <glyph glyph-name="uni2006" unicode="&#x2006;" horiz-adv-x="384" 
 />
    <glyph glyph-name="uni2007" unicode="&#x2007;" horiz-adv-x="384" 
 />
    <glyph glyph-name="uni2008" unicode="&#x2008;" horiz-adv-x="288" 
 />
    <glyph glyph-name="uni2009" unicode="&#x2009;" horiz-adv-x="460" 
 />
    <glyph glyph-name="uni200A" unicode="&#x200a;" horiz-adv-x="128" 
 />
    <glyph glyph-name="hyphen" unicode="&#x2010;" horiz-adv-x="1024" 
d="M0 512v256h768v-256h-768z" />
    <glyph glyph-name="uni2011" unicode="&#x2011;" horiz-adv-x="1280" 
d="M0 512v256h1024v-256h-1024z" />
    <glyph glyph-name="figuredash" unicode="&#x2012;" horiz-adv-x="1280" 
d="M0 512v256h1024v-256h-1024z" />
    <glyph glyph-name="endash" unicode="&#x2013;" horiz-adv-x="1024" 
d="M0 512v256h768v-256h-768z" />
    <glyph glyph-name="emdash" unicode="&#x2014;" horiz-adv-x="1280" 
d="M0 512v256h1024v-256h-1024z" />
    <glyph glyph-name="quoteleft" unicode="&#x2018;" horiz-adv-x="512" 
d="M0 768v512h256v-512h-256z" />
    <glyph glyph-name="quoteright" unicode="&#x2019;" horiz-adv-x="512" 
d="M0 768v512h256v-512h-256z" />
    <glyph glyph-name="quotesinglbase" unicode="&#x201a;" horiz-adv-x="512" 
d="M-256 -256h256v512h256v-512h-256v-256h-256v256z" />
    <glyph glyph-name="quotedblleft" unicode="&#x201c;" horiz-adv-x="1024" 
d="M0 768v512h256v-512h-256zM512 768v512h256v-512h-256z" />
    <glyph glyph-name="quotedblright" unicode="&#x201d;" horiz-adv-x="1024" 
d="M0 768v512h256v-512h-256zM512 768v512h256v-512h-256z" />
    <glyph glyph-name="quotedblbase" unicode="&#x201e;" horiz-adv-x="1024" 
d="M-256 -256h256v512h256v-512h256v512h256v-512h-256v-256h-256v256h-256v-256h-256v256z" />
    <glyph glyph-name="dagger" unicode="&#x2020;" horiz-adv-x="1024" 
d="M0 512v256h256v256h256v-256h256v-256h-256v-512h-256v512h-256z" />
    <glyph glyph-name="daggerdbl" unicode="&#x2021;" horiz-adv-x="1024" 
d="M0 256v256h256v256h-256v256h256v512h256v-512h256v-256h-256v-256h256v-256h-256v-512h-256v512h-256z" />
    <glyph glyph-name="bullet" unicode="&#x2022;" horiz-adv-x="512" 
d="M0 512v256h256v-256h-256z" />
    <glyph glyph-name="ellipsis" unicode="&#x2026;" 
d="M0 0v256h256v-256h-256zM512 0v256h256v-256h-256zM1024 0v256h256v-256h-256z" />
    <glyph glyph-name="uni202F" unicode="&#x202f;" horiz-adv-x="460" 
 />
    <glyph glyph-name="perthousand" unicode="&#x2030;" 
d="M0 0v256h256v256h256v256h256v256h256v256h256v-256h-256v-256h-256v-256h-256v-256h256v-256h-256v256h-256v-256h-256zM0 1024v256h256v-256h-256zM1024 0v256h256v-256h-256z" />
    <glyph glyph-name="guilsinglleft" unicode="&#x2039;" horiz-adv-x="768" 
d="M0 512v256h256v256h256v-256h-256v-256h256v-256h-256v256h-256z" />
    <glyph glyph-name="guilsinglright" unicode="&#x203a;" horiz-adv-x="768" 
d="M0 256v256h256v256h-256v256h256v-256h256v-256h-256v-256h-256z" />
    <glyph glyph-name="fraction" unicode="&#x2044;" 
d="M0 0v256h256v256h256v256h256v256h256v256h256v-256h-256v-256h-256v-256h-256v-256h-256v-256h-256z" />
    <glyph glyph-name="uni205F" unicode="&#x205f;" horiz-adv-x="576" 
 />
    <glyph glyph-name="Euro" unicode="&#x20ac;" horiz-adv-x="1792" 
d="M0 512v256h256v256h256v256h768v-256h256v-256h-256v256h-768v-256h512v-256h-512v-256h768v256h256v-256h-256v-256h-768v256h-256v256h-256z" />
    <glyph glyph-name="servicemark" unicode="&#x2120;" horiz-adv-x="2304" 
d="M0 512v256h256v512h512v-256h256v256h256v-256h256v256h256v-256h256v-512h-256v512h-256v-512h-256v512h-256v-512h-256v512h-256v-512h-512z" />
    <glyph glyph-name="trademark" unicode="&#x2122;" horiz-adv-x="2304" 
d="M0 1024v256h768v-256h256v256h256v-256h256v256h256v-256h256v-512h-256v512h-256v-512h-256v512h-256v-512h-256v512h-256v-512h-256v512h-256z" />
    <glyph glyph-name="Omega" unicode="&#x2126;" 
d="M0 0v256h256v256h-256v512h256v-512h256v-512h-512zM256 1024v256h768v-256h-768zM768 0v512h256v512h256v-512h-256v-256h256v-256h-512z" />
    <glyph glyph-name="arrowleft" unicode="&#x2190;" 
d="M0 512v256h256v256h256v256h256v-256h-256v-256h768v-256h-768v-256h256v-256h-256v256h-256v256h-256z" />
    <glyph glyph-name="arrowup" unicode="&#x2191;" 
d="M0 512v256h256v256h256v256h256v-256h256v-256h256v-256h-256v256h-256v-768h-256v768h-256v-256h-256z" />
    <glyph glyph-name="arrowright" unicode="&#x2192;" 
d="M0 512v256h768v256h-256v256h256v-256h256v-256h256v-256h-256v-256h-256v-256h-256v256h256v256h-768z" />
    <glyph glyph-name="arrowdown" unicode="&#x2193;" 
d="M0 512v256h256v-256h256v768h256v-768h256v256h256v-256h-256v-256h-256v-256h-256v256h-256v256h-256z" />
    <glyph glyph-name="arrowlongboth" unicode="&#x2194;" horiz-adv-x="2560" 
d="M0 512v256h256v256h256v256h256v-256h-256v-256h1280v256h-256v256h256v-256h256v-256h256v-256h-256v-256h-256v-256h-256v256h256v256h-1280v-256h256v-256h-256v256h-256v256h-256z" />
    <glyph glyph-name="arrowlongbothv" unicode="&#x2195;" 
d="M0 0v256h256v-256h256v1280h-256v-256h-256v256h256v256h256v256h256v-256h256v-256h256v-256h-256v256h-256v-1280h256v256h256v-256h-256v-256h-256v-256h-256v256h-256v256h-256z" />
    <glyph glyph-name="arrownorthwest" unicode="&#x2196;" 
d="M0 0v1280h1280v-256h-768v-256h256v-256h256v-256h256v-256h-256v256h-256v256h-256v256h-256v-768h-256z" />
    <glyph glyph-name="arrownortheast" unicode="&#x2197;" 
d="M0 0v256h256v256h256v256h256v256h-768v256h1280v-1280h-256v768h-256v-256h-256v-256h-256v-256h-256z" />
    <glyph glyph-name="arrowsoutheast" unicode="&#x2198;" 
d="M0 0v256h768v256h-256v256h-256v256h-256v256h256v-256h256v-256h256v-256h256v768h256v-1280h-1280z" />
    <glyph glyph-name="arrowsouthwest" unicode="&#x2199;" 
d="M0 0v1280h256v-768h256v256h256v256h256v256h256v-256h-256v-256h-256v-256h-256v-256h768v-256h-1280z" />
    <glyph glyph-name="arrowrightdown" unicode="&#x21b4;" 
d="M0 512v256h256v-256h256v512h-512v256h768v-768h256v256h256v-256h-256v-256h-256v-256h-256v256h-256v256h-256z" />
    <glyph glyph-name="carriagerreturn" unicode="&#x21b5;" 
d="M0 512v256h256v256h256v256h256v-256h-256v-256h512v512h256v-768h-768v-256h256v-256h-256v256h-256v256h-256z" />
    <glyph glyph-name="arrowdashleft" unicode="&#x21e0;" horiz-adv-x="2048" 
d="M0 512v256h256v256h256v256h256v-256h-256v-256h256v-256h-256v-256h256v-256h-256v256h-256v256h-256zM1024 512v256h256v-256h-256zM1536 512v256h256v-256h-256z" />
    <glyph glyph-name="arrowdashup" unicode="&#x21e1;" 
d="M0 768v256h256v256h256v256h256v-256h256v-256h256v-256h-256v256h-256v-256h-256v256h-256v-256h-256zM512 0h256v-256h-256v256zM512 256v256h256v-256h-256z" />
    <glyph glyph-name="arrowdashright" unicode="&#x21e2;" horiz-adv-x="2048" 
d="M0 512v256h256v-256h-256zM512 512v256h256v-256h-256zM1024 0v256h256v256h-256v256h256v256h-256v256h256v-256h256v-256h256v-256h-256v-256h-256v-256h-256z" />
    <glyph glyph-name="arrowdashdown" unicode="&#x21e3;" 
d="M0 256v256h256v-256h256v256h256v-256h256v256h256v-256h-256v-256h-256v-256h-256v256h-256v256h-256zM512 768v256h256v-256h-256zM512 1280v256h256v-256h-256z" />
    <glyph glyph-name="partialdiff" unicode="&#x2202;" horiz-adv-x="1024" 
d="M0 256v256h256v256h256v256h-256v256h256v-256h256v-256h-256v-256h256v-256h-256v-256h-256v256h-256zM256 266h256v236h-256v-236z" />
    <glyph glyph-name="Delta" unicode="&#x2206;" 
d="M0 0v512h256v512h256v256h256v-256h256v-512h256v-512h-1280zM266 256h748v256h-246v502h-256v-502h-246v-256z" />
    <glyph glyph-name="product" unicode="&#x220f;" 
d="M0 1024v256h1280v-256h-256v-1024h-256v1024h-256v-1024h-256v1024h-256z" />
    <glyph glyph-name="summation" unicode="&#x2211;" 
d="M0 0v256h256v256h256v256h-256v256h-256v256h1280v-512h-256v256h-512v-256h256v-256h-256v-256h512v256h256v-512h-1280z" />
    <glyph glyph-name="minus" unicode="&#x2212;" horiz-adv-x="1280" 
d="M0 512v256h1024v-256h-1024z" />
    <glyph glyph-name="uni2219" unicode="&#x2219;" horiz-adv-x="512" 
d="M0 512v256h256v-256h-256z" />
    <glyph glyph-name="radical" unicode="&#x221a;" 
d="M0 256v256h256v-256h256v256h256v256h256v256h256v-256h-256v-256h-256v-256h-256v-256h-256v256h-256z" />
    <glyph glyph-name="infinity" unicode="&#x221e;" 
d="M0 512v256h256v256h256v-256h256v256h256v-256h256v-256h-256v-256h-256v256h-256v-256h-256v256h-256zM256 522h256v236h-256v-236zM768 522h256v236h-256v-236z" />
    <glyph glyph-name="integral" unicode="&#x222b;" horiz-adv-x="768" 
d="M-256 0h256v1280h256v256h256v-256h-256v-1280h-256v-256h-256v256z" />
    <glyph glyph-name="approxequal" unicode="&#x2248;" 
d="M0 256v256h256v254h512v-254h256v254h256v-254h-256v-256h-256v256h-512v-256h-256zM0 1026v254h256v256h512v-256h256v256h256v-256h-256v-254h-256v254h-512v-254h-256z" />
    <glyph glyph-name="notequal" unicode="&#x2260;" 
d="M0 256v256h512v256h-512v256h768v256h256v-256h256v-256h-512v-256h512v-256h-768v-256h-256v256h-256z" />
    <glyph glyph-name="lessequal" unicode="&#x2264;" horiz-adv-x="1280" 
d="M0 0v256h1024v-256h-1024zM0 768v256h512v256h512v-256h-512v-256h512v-256h-512v256h-512z" />
    <glyph glyph-name="greaterequal" unicode="&#x2265;" horiz-adv-x="1280" 
d="M0 0v256h1024v-256h-1024zM0 512v256h512v256h-512v256h512v-256h512v-256h-512v-256h-512z" />
    <glyph glyph-name="uni22F2" unicode="&#x22f2;" 
d="M0 256v256h256v254h512v-254h256v254h256v-254h-256v-256h-256v256h-512v-256h-256zM0 1026v254h256v256h512v-256h256v256h256v-256h-256v-254h-256v254h-512v-254h-256z" />
    <glyph glyph-name="lozenge" unicode="&#x25ca;" horiz-adv-x="1024" 
d="M0 512v256h256v256h256v-256h256v-256h-256v-256h-256v256h-256zM256 522h256v236h-256v-236z" />
    <glyph glyph-name="uniE000" unicode="&#xe000;" horiz-adv-x="1024" 
d="M0 0v1024h1024v-1024h-1024z" />
    <glyph glyph-name="apple" unicode="&#xf000;" horiz-adv-x="2048" 
 />
    <glyph glyph-name="fi" unicode="&#xf001;" horiz-adv-x="1280" 
d="M0 0v1024h256v256h768v-256h-768v-256h768v-768h-256v512h-512v-512h-256z" />
    <glyph glyph-name="fl" unicode="&#xf002;" horiz-adv-x="1280" 
d="M0 0v1024h256v256h768v-1280h-256v512h-512v-512h-256zM266 768h502v256h-502v-256z" />
    <glyph glyph-name=".null" horiz-adv-x="0" 
 />
  </font>
</defs>
</svg>
